<svg width="48" height="15" viewBox="0 0 48 15" fill="none" xmlns="http://www.w3.org/2000/svg">
<g id="Bank Syariah Indonesia">
<g id="Bank Syariah Indonesia_2">
<path id="Vector" d="M15.9257 3.94336H15.9081V3.94501C15.9141 3.94446 15.919 3.94399 15.9257 3.94336Z" fill="#168F8C"/>
<path id="Vector_2" d="M16.0312 3.78906V13.6415H18.3359V6.25761C18.3359 5.70616 18.0432 4.04014 16.0312 3.78906Z" fill="#0CA49D"/>
<path id="Vector_3" d="M3.78066 11.9269C4.07376 11.9269 4.31334 11.8896 4.49947 11.8148C4.68539 11.74 4.83091 11.6433 4.93612 11.5246C5.04102 11.4059 5.11316 11.2718 5.1526 11.1223C5.19197 10.9729 5.21162 10.8212 5.21162 10.6673C5.21162 10.4915 5.18867 10.3332 5.14263 10.1924C5.09689 10.0517 5.018 9.93311 4.90635 9.83628C4.79492 9.73959 4.64712 9.66479 4.46333 9.61203C4.27954 9.55933 4.04758 9.53288 3.76746 9.53288H2.21854V11.9269H3.78066ZM2.21854 5.66811V8.0424H3.37378C3.61871 8.0424 3.83982 8.02486 4.03673 7.98964C4.2335 7.95441 4.40102 7.89295 4.53877 7.80488C4.67652 7.71704 4.78172 7.59618 4.85386 7.44223C4.926 7.28836 4.96221 7.09491 4.96221 6.86189C4.96221 6.63329 4.9337 6.44308 4.87688 6.29142C4.81992 6.13968 4.73238 6.01771 4.61428 5.9253C4.49618 5.83296 4.34618 5.76708 4.16474 5.72743C3.98314 5.68786 3.76746 5.66811 3.5182 5.66811H2.21854ZM3.5182 3.99951C4.17888 3.99951 4.74125 4.06119 5.20509 4.18419C5.66879 4.30741 6.04744 4.48096 6.34069 4.70521C6.63371 4.92947 6.84697 5.20214 6.98062 5.523C7.11397 5.84402 7.18076 6.20232 7.18076 6.59806C7.18076 6.81347 7.15011 7.02129 7.08905 7.2213C7.02768 7.42145 6.93128 7.60819 6.80005 7.78182C6.66875 7.95559 6.50028 8.11492 6.29465 8.2601C6.08886 8.40513 5.8418 8.53048 5.55303 8.63587C6.18299 8.78981 6.64911 9.03817 6.951 9.38122C7.2529 9.72412 7.40406 10.1683 7.40406 10.7134C7.40406 11.1223 7.32525 11.5027 7.16764 11.8544C7.01016 12.2062 6.77916 12.5129 6.47506 12.7744C6.17104 13.036 5.79576 13.2405 5.34937 13.3878C4.9032 13.5352 4.39332 13.6087 3.82017 13.6087H0V3.99951H3.5182Z" fill="#0CA49D"/>
<path id="Vector_4" d="M14.0728 5.95175C14.0071 6.05735 13.9384 6.13642 13.866 6.18919C13.7939 6.24196 13.7009 6.26834 13.5871 6.26834C13.4865 6.26834 13.3782 6.23643 13.2622 6.17268C13.1463 6.10894 13.015 6.03753 12.8685 5.95838C12.7219 5.87923 12.5544 5.80775 12.3663 5.744C12.1783 5.68025 11.9637 5.64842 11.7229 5.64842C11.3072 5.64842 10.9977 5.73744 10.7942 5.91556C10.5908 6.09353 10.4889 6.3343 10.4889 6.6377C10.4889 6.83122 10.5503 6.99165 10.6727 7.11907C10.7952 7.24663 10.9562 7.35659 11.1553 7.44893C11.3544 7.54119 11.582 7.62594 11.8379 7.70281C12.0939 7.77982 12.3553 7.86552 12.6222 7.96C12.8892 8.05462 13.1508 8.16561 13.4067 8.29303C13.6627 8.42059 13.8903 8.58324 14.0893 8.78111C14.2884 8.97898 14.4492 9.21966 14.5717 9.50324C14.6941 9.78682 14.7555 10.1288 14.7555 10.5288C14.7555 10.973 14.679 11.3885 14.5259 11.7752C14.3726 12.1622 14.1505 12.4997 13.8596 12.7877C13.5685 13.0757 13.2097 13.3021 12.7832 13.4669C12.3565 13.6319 11.8717 13.7143 11.3292 13.7143C11.0317 13.7143 10.7285 13.6835 10.4202 13.622C10.1116 13.5604 9.81301 13.4735 9.52424 13.3614C9.23532 13.2493 8.964 13.1163 8.71027 12.9625C8.45624 12.8086 8.23536 12.6371 8.04724 12.4479L8.7036 11.406C8.75623 11.3312 8.825 11.2686 8.91033 11.218C8.99567 11.1675 9.08863 11.1422 9.1895 11.1422C9.32058 11.1422 9.45284 11.1839 9.58656 11.2675C9.71998 11.3511 9.87093 11.4433 10.0395 11.5445C10.2079 11.6457 10.4015 11.738 10.6203 11.8215C10.839 11.905 11.0973 11.9468 11.3949 11.9468C11.7974 11.9468 12.1104 11.8577 12.3335 11.6797C12.5566 11.5016 12.6682 11.2191 12.6682 10.8323C12.6682 10.6079 12.6068 10.4256 12.4845 10.2848C12.362 10.1442 12.201 10.0276 12.0021 9.93517C11.8027 9.8429 11.5763 9.76154 11.3226 9.69124C11.0688 9.62101 10.8084 9.54289 10.5416 9.45703C10.2745 9.37133 10.0142 9.26587 9.76045 9.14059C9.5065 9.01523 9.28004 8.85038 9.08122 8.64595C8.88189 8.44145 8.72104 8.18646 8.59861 7.88085C8.47618 7.57531 8.41482 7.19829 8.41482 6.74979C8.41482 6.38935 8.48696 6.03753 8.63146 5.69448C8.77595 5.35158 8.98804 5.04604 9.26809 4.77786C9.54821 4.50976 9.89182 4.29531 10.2986 4.13473C10.7056 3.9743 11.1716 3.89404 11.6968 3.89404C11.9899 3.89404 12.2755 3.91718 12.5535 3.96339C12.8312 4.00945 13.0949 4.07769 13.3443 4.16782C13.5939 4.25795 13.8267 4.36569 14.0434 4.49097C14.26 4.61633 14.4535 4.75804 14.6242 4.91634L14.0728 5.95175Z" fill="#0CA49D"/>
<path id="Vector_5" d="M18.5886 0.238034C18.5836 0.157485 18.5744 0.0781901 18.5624 0C19.078 0.534802 19.8144 0.8483 20.612 0.797672C20.9934 0.773352 21.3502 0.667822 21.6678 0.499577C21.4211 0.932017 21.2932 1.43926 21.3269 1.97384C21.3686 2.63562 21.6504 3.22429 22.081 3.661C21.8607 3.61642 21.6312 3.59925 21.3964 3.61428C20.4632 3.67353 19.6757 4.21652 19.2586 4.98449C19.0939 3.84929 18.2177 2.9668 17.1219 2.77262C18.0477 2.31799 18.6577 1.33542 18.5886 0.238034Z" fill="#F9AD3C"/>
<path id="Vector_6" d="M22.5431 9.70999C22.6487 9.70999 22.7398 9.69783 22.8161 9.67351C22.8925 9.64919 22.9549 9.61529 23.0032 9.57182C23.0529 9.52701 23.0892 9.47454 23.112 9.4144C23.135 9.35302 23.1464 9.28588 23.1464 9.21292C23.1464 9.07091 23.0961 8.95897 22.9955 8.8771C22.895 8.79389 22.7442 8.75233 22.5431 8.75233H21.9512V9.70999H22.5431ZM21.9512 7.54897V8.48747H22.44C22.5444 8.48747 22.6347 8.47598 22.7111 8.45291C22.7887 8.42992 22.8524 8.39793 22.902 8.35696C22.9529 8.31599 22.9905 8.26676 23.0147 8.2092C23.0389 8.15032 23.051 8.08635 23.051 8.0173C23.051 7.8548 23.0026 7.73645 22.9058 7.66224C22.8091 7.5867 22.6589 7.54897 22.4552 7.54897H21.9512ZM22.4552 7.25537C22.6233 7.25537 22.7678 7.27195 22.8887 7.30526C23.0109 7.3385 23.1108 7.38588 23.1884 7.44727C23.2673 7.50866 23.3252 7.5842 23.3622 7.67374C23.399 7.76202 23.4175 7.86181 23.4175 7.97316C23.4175 8.04096 23.4067 8.10618 23.385 8.16889C23.3647 8.23028 23.3335 8.28791 23.2915 8.34163C23.2495 8.39535 23.196 8.44399 23.1311 8.48747C23.0675 8.5297 22.9924 8.56426 22.9058 8.59109C23.107 8.62948 23.2578 8.70178 23.3584 8.80797C23.4601 8.91291 23.5111 9.05109 23.5111 9.2225C23.5111 9.33894 23.4894 9.44513 23.4461 9.54109C23.4042 9.63704 23.3418 9.71957 23.259 9.7887C23.1776 9.85775 23.0771 9.91147 22.9574 9.94987C22.8378 9.98701 22.7016 10.0055 22.5488 10.0055H21.5828V7.25537H22.4552Z" fill="#0CA49D"/>
<path id="Vector_7" d="M25.4669 8.98454L25.0373 7.86564C25.0246 7.8324 25.0112 7.79401 24.9972 7.75053C24.9832 7.70572 24.9698 7.65841 24.9571 7.60852C24.9304 7.71213 24.903 7.7985 24.875 7.86755L24.4454 8.98454H25.4669ZM26.2382 10.0055H25.9518C25.9187 10.0055 25.892 9.99725 25.8716 9.9806C25.8512 9.96394 25.836 9.94287 25.8258 9.91722L25.57 9.25323H24.3424L24.0865 9.91722C24.0789 9.94029 24.0642 9.96077 24.0426 9.97868C24.021 9.99659 23.9942 10.0055 23.9624 10.0055H23.676L24.77 7.25537H25.1442L26.2382 10.0055Z" fill="#0CA49D"/>
<path id="Vector_8" d="M28.8148 7.25537V10.0055H28.6296C28.6003 10.0055 28.5755 10.0004 28.5552 9.99018C28.5361 9.97994 28.517 9.96269 28.4979 9.93837L26.9152 7.86564C26.9177 7.89762 26.9196 7.92901 26.9209 7.95967C26.9222 7.9904 26.9228 8.01922 26.9228 8.04604V10.0055H26.5983V7.25537H26.7892C26.8057 7.25537 26.8197 7.25662 26.8312 7.2592C26.8426 7.26046 26.8528 7.2637 26.8617 7.26878C26.8706 7.27262 26.8795 7.27903 26.8884 7.28795C26.8974 7.29568 26.9069 7.30593 26.9171 7.31868L28.4998 9.38949C28.4972 9.35618 28.4947 9.3242 28.4922 9.29354C28.4909 9.26156 28.4903 9.23149 28.4903 9.20334V7.25537H28.8148Z" fill="#0CA49D"/>
<path id="Vector_9" d="M29.8827 8.46057H30.0221C30.0704 8.46057 30.1092 8.45483 30.1385 8.44333C30.1678 8.43051 30.1945 8.40943 30.2187 8.38003L31.1293 7.34366C31.1549 7.31035 31.1815 7.28736 31.2096 7.27453C31.2376 7.26178 31.2719 7.25537 31.3127 7.25537H31.6257L30.5833 8.4395C30.5579 8.47023 30.533 8.4958 30.5089 8.51629C30.486 8.53545 30.4612 8.55144 30.4344 8.56426C30.4688 8.57576 30.5 8.593 30.528 8.61607C30.556 8.63781 30.5833 8.66662 30.6101 8.70244L31.6983 10.0055H31.3776C31.3534 10.0055 31.3324 10.0043 31.3146 10.0017C31.298 9.99784 31.2834 9.99276 31.2707 9.98635C31.2579 9.97868 31.2465 9.97036 31.2363 9.96137C31.2274 9.9512 31.2185 9.93962 31.2096 9.92688L30.2664 8.83487C30.241 8.80289 30.2136 8.78048 30.1843 8.76766C30.155 8.75358 30.1105 8.74658 30.0507 8.74658H29.8827V10.0055H29.5142V7.25537H29.8827V8.46057Z" fill="#0CA49D"/>
<path id="Vector_10" d="M34.4187 7.68569C34.4073 7.70492 34.3945 7.71959 34.3805 7.72983C34.3678 7.73882 34.3519 7.74332 34.3328 7.74332C34.3112 7.74332 34.2857 7.73241 34.2564 7.71067C34.2272 7.68893 34.1903 7.6652 34.1457 7.63963C34.1024 7.61281 34.0496 7.58849 33.9872 7.56675C33.9261 7.54493 33.8517 7.5341 33.7639 7.5341C33.6811 7.5341 33.608 7.5456 33.5443 7.56866C33.4819 7.5904 33.4291 7.62047 33.3858 7.65887C33.3438 7.69719 33.312 7.74266 33.2904 7.79513C33.2688 7.84627 33.2579 7.90191 33.2579 7.96204C33.2579 8.03883 33.2764 8.1028 33.3133 8.15402C33.3515 8.20391 33.4011 8.24673 33.4622 8.28254C33.5246 8.31843 33.5945 8.34975 33.6722 8.37658C33.7511 8.40222 33.8313 8.42905 33.9128 8.4572C33.9955 8.48535 34.0757 8.51733 34.1533 8.55315C34.2323 8.58771 34.3023 8.63186 34.3634 8.68558C34.4257 8.7393 34.4754 8.80526 34.5123 8.8833C34.5505 8.96135 34.5695 9.0573 34.5695 9.17115C34.5695 9.29142 34.5492 9.40462 34.5084 9.51081C34.4678 9.61575 34.4079 9.70721 34.329 9.78533C34.2513 9.86337 34.1552 9.92476 34.0407 9.96956C33.9274 10.0143 33.7982 10.0367 33.6531 10.0367C33.4749 10.0367 33.3133 10.0047 33.1682 9.94075C33.0231 9.87553 32.899 9.78783 32.7959 9.67781L32.9028 9.50123C32.913 9.48716 32.9251 9.47566 32.9391 9.46667C32.9543 9.4565 32.9709 9.45134 32.9887 9.45134C33.0053 9.45134 33.0238 9.45842 33.0441 9.47249C33.0658 9.48524 33.0899 9.5019 33.1166 9.52238C33.1434 9.54287 33.1739 9.5652 33.2083 9.58952C33.2427 9.61384 33.2814 9.63624 33.3248 9.65673C33.3693 9.67714 33.4196 9.69446 33.4756 9.70854C33.5316 9.72129 33.5945 9.7277 33.6646 9.7277C33.7524 9.7277 33.8307 9.71554 33.8995 9.69122C33.9681 9.66697 34.0261 9.633 34.0731 9.58952C34.1215 9.54479 34.1585 9.49165 34.1839 9.43026C34.2093 9.3688 34.2221 9.30034 34.2221 9.22488C34.2221 9.14175 34.203 9.07395 34.1648 9.02148C34.1279 8.96768 34.0789 8.92295 34.0178 8.88714C33.9567 8.85132 33.8867 8.82125 33.8077 8.79693C33.7289 8.77136 33.6487 8.74572 33.5672 8.72014C33.4858 8.69324 33.4056 8.66259 33.3267 8.62803C33.2477 8.59346 33.1777 8.54873 33.1166 8.49368C33.0556 8.4387 33.0059 8.37024 32.9677 8.28837C32.9308 8.20516 32.9124 8.1028 32.9124 7.98128C32.9124 7.884 32.9308 7.78997 32.9677 7.69918C33.0059 7.60831 33.0606 7.52769 33.1319 7.45731C33.2045 7.38693 33.2929 7.33063 33.3973 7.2884C33.5029 7.24625 33.6239 7.2251 33.76 7.2251C33.9128 7.2251 34.0515 7.24942 34.1763 7.29806C34.3023 7.34662 34.413 7.417 34.5084 7.50912L34.4187 7.68569Z" fill="#0CA49D"/>
<path id="Vector_11" d="M36.0637 8.90967V10.0055H35.6933V8.90967L34.691 7.25537H35.0156C35.0487 7.25537 35.0747 7.2637 35.0939 7.28028C35.1129 7.29568 35.1295 7.3161 35.1435 7.34174L35.7697 8.41068C35.7926 8.45549 35.8136 8.49772 35.8327 8.53736C35.8518 8.57576 35.8683 8.61474 35.8823 8.65446C35.8963 8.61474 35.9123 8.57576 35.9301 8.53736C35.948 8.49772 35.9677 8.45549 35.9893 8.41068L36.6136 7.34174C36.6251 7.32 36.641 7.3001 36.6613 7.2822C36.6817 7.26429 36.7077 7.25537 36.7396 7.25537H37.0661L36.0637 8.90967Z" fill="#0CA49D"/>
<path id="Vector_12" d="M38.604 8.98454L38.1744 7.86564C38.1617 7.8324 38.1483 7.79401 38.1343 7.75053C38.1203 7.70572 38.1069 7.65841 38.0942 7.60852C38.0675 7.71213 38.0401 7.7985 38.0121 7.86755L37.5825 8.98454H38.604ZM39.3753 10.0055H39.0889C39.0558 10.0055 39.0291 9.99725 39.0087 9.9806C38.9883 9.96394 38.9731 9.94287 38.9629 9.91722L38.707 9.25323H37.4794L37.2236 9.91722C37.216 9.94029 37.2013 9.96077 37.1797 9.97868C37.158 9.99659 37.1314 10.0055 37.0995 10.0055H36.8131L37.9071 7.25537H38.2813L39.3753 10.0055Z" fill="#0CA49D"/>
<path id="Vector_13" d="M40.4931 8.58726C40.6 8.58726 40.6942 8.5745 40.7756 8.54886C40.8583 8.52203 40.9271 8.48489 40.9818 8.43758C41.0378 8.38894 41.0798 8.33139 41.1078 8.26484C41.1358 8.1983 41.1498 8.12475 41.1498 8.04412C41.1498 7.88038 41.0964 7.75686 40.9895 7.67374C40.8825 7.59053 40.7222 7.54897 40.5083 7.54897H40.1036V8.58726H40.4931ZM41.757 10.0055H41.4285C41.3611 10.0055 41.3114 9.97927 41.2796 9.92688L40.5694 8.94423C40.5478 8.9135 40.5242 8.89176 40.4988 8.87901C40.4746 8.86494 40.4364 8.85786 40.3842 8.85786H40.1036V10.0055H39.7351V7.25537H40.5083C40.6814 7.25537 40.831 7.27328 40.957 7.30909C41.083 7.34366 41.1867 7.39414 41.2682 7.46069C41.3509 7.52723 41.412 7.60785 41.4515 7.70255C41.4909 7.79592 41.5106 7.90086 41.5106 8.0173C41.5106 8.1145 41.4954 8.20537 41.4648 8.28982C41.4342 8.3742 41.3897 8.45033 41.3312 8.5182C41.2739 8.58468 41.2032 8.64164 41.1192 8.68895C41.0365 8.73634 40.9423 8.77216 40.8367 8.79647C40.8838 8.8233 40.9245 8.86236 40.9589 8.9135L41.757 10.0055Z" fill="#0CA49D"/>
<path id="Vector_14" d="M42.4995 10.0055H42.1292V7.25537H42.4995V10.0055Z" fill="#0CA49D"/>
<path id="Vector_15" d="M44.6522 8.98454L44.2226 7.86564C44.2099 7.8324 44.1965 7.79401 44.1825 7.75053C44.1685 7.70572 44.1551 7.65841 44.1424 7.60852C44.1157 7.71213 44.0883 7.7985 44.0603 7.86755L43.6307 8.98454H44.6522ZM45.4235 10.0055H45.1371C45.104 10.0055 45.0773 9.99725 45.0569 9.9806C45.0365 9.96394 45.0213 9.94287 45.0111 9.91722L44.7552 9.25323H43.5277L43.2718 9.91722C43.2642 9.94029 43.2495 9.96077 43.2279 9.97868C43.2063 9.99659 43.1795 10.0055 43.1477 10.0055H42.8613L43.9553 7.25537H44.3295L45.4235 10.0055Z" fill="#0CA49D"/>
<path id="Vector_16" d="M48 7.25537V10.0055H47.6296V8.75425H46.1538V10.0055H45.7834V7.25537H46.1538V8.48172H47.6296V7.25537H48Z" fill="#0CA49D"/>
<path id="Vector_17" d="M21.9531 13.6311H21.5828V10.8809H21.9531V13.6311Z" fill="#0CA49D"/>
<path id="Vector_18" d="M24.8694 10.8809V13.6311H24.6842C24.655 13.6311 24.6301 13.626 24.6098 13.6157C24.5907 13.6055 24.5716 13.5882 24.5525 13.5639L22.9698 11.4912C22.9723 11.5232 22.9742 11.5545 22.9755 11.5852C22.9768 11.616 22.9774 11.6447 22.9774 11.6716V13.6311H22.6528V10.8809H22.8437C22.8603 10.8809 22.8743 10.8822 22.8857 10.8848C22.8972 10.886 22.9074 10.8892 22.9163 10.8943C22.9252 10.8982 22.9341 10.9046 22.943 10.9135C22.9519 10.9212 22.9615 10.9314 22.9717 10.9442L24.5544 13.015C24.5519 12.9817 24.5493 12.9498 24.5468 12.919C24.5455 12.887 24.5449 12.857 24.5449 12.8288V10.8809H24.8694Z" fill="#0CA49D"/>
<path id="Vector_19" d="M27.9402 12.257C27.9402 12.4629 27.9077 12.6503 27.8429 12.8192C27.7779 12.9882 27.6863 13.1327 27.5679 13.253C27.4495 13.3733 27.307 13.4667 27.1402 13.5332C26.9748 13.5984 26.7915 13.6311 26.5904 13.6311H25.569V10.8809H26.5904C26.7915 10.8809 26.9748 10.9142 27.1402 10.9807C27.307 11.0459 27.4495 11.1393 27.5679 11.2609C27.6863 11.3812 27.7779 11.5258 27.8429 11.6946C27.9077 11.8635 27.9402 12.051 27.9402 12.257ZM27.5602 12.257C27.5602 12.0881 27.5374 11.9371 27.4916 11.804C27.4457 11.6709 27.3808 11.5583 27.2968 11.4662C27.2128 11.3741 27.111 11.3037 26.9914 11.2552C26.8717 11.2065 26.7381 11.1822 26.5904 11.1822H25.9393V13.3297H26.5904C26.7381 13.3297 26.8717 13.3055 26.9914 13.2569C27.111 13.2082 27.2128 13.1385 27.2968 13.0476C27.3808 12.9555 27.4457 12.8429 27.4916 12.7099C27.5374 12.5768 27.5602 12.4258 27.5602 12.257Z" fill="#0CA49D"/>
<path id="Vector_20" d="M31.0016 12.2569C31.0016 12.4628 30.9691 12.6522 30.9042 12.8249C30.8393 12.9964 30.7477 13.1441 30.6293 13.2682C30.5109 13.3923 30.3683 13.489 30.2016 13.558C30.0362 13.6259 29.8529 13.6598 29.6518 13.6598C29.4506 13.6598 29.2674 13.6259 29.1019 13.558C28.9364 13.489 28.7945 13.3923 28.6762 13.2682C28.5578 13.1441 28.4661 12.9964 28.4013 12.8249C28.3363 12.6522 28.3038 12.4628 28.3038 12.2569C28.3038 12.0509 28.3363 11.8621 28.4013 11.6907C28.4661 11.5179 28.5578 11.3696 28.6762 11.2454C28.7945 11.12 28.9364 11.0228 29.1019 10.9537C29.2674 10.8847 29.4506 10.8501 29.6518 10.8501C29.8529 10.8501 30.0362 10.8847 30.2016 10.9537C30.3683 11.0228 30.5109 11.12 30.6293 11.2454C30.7477 11.3696 30.8393 11.5179 30.9042 11.6907C30.9691 11.8621 31.0016 12.0509 31.0016 12.2569ZM30.6216 12.2569C30.6216 12.0879 30.5988 11.9364 30.5529 11.802C30.5071 11.6677 30.4422 11.5544 30.3582 11.4623C30.2741 11.3689 30.1723 11.2973 30.0527 11.2474C29.933 11.1974 29.7994 11.1725 29.6518 11.1725C29.5054 11.1725 29.3724 11.1974 29.2528 11.2474C29.1331 11.2973 29.0306 11.3689 28.9454 11.4623C28.8614 11.5544 28.7964 11.6677 28.7506 11.802C28.7048 11.9364 28.6819 12.0879 28.6819 12.2569C28.6819 12.4257 28.7048 12.5774 28.7506 12.7117C28.7964 12.8447 28.8614 12.958 28.9454 13.0514C29.0306 13.1435 29.1331 13.2145 29.2528 13.2644C29.3724 13.3131 29.5054 13.3374 29.6518 13.3374C29.7994 13.3374 29.933 13.3131 30.0527 13.2644C30.1723 13.2145 30.2741 13.1435 30.3582 13.0514C30.4422 12.958 30.5071 12.8447 30.5529 12.7117C30.5988 12.5774 30.6216 12.4257 30.6216 12.2569Z" fill="#0CA49D"/>
<path id="Vector_21" d="M33.7481 10.8809V13.6311H33.5629C33.5336 13.6311 33.5088 13.626 33.4885 13.6157C33.4693 13.6055 33.4503 13.5882 33.4311 13.5639L31.8484 11.4912C31.851 11.5232 31.8529 11.5545 31.8541 11.5852C31.8555 11.616 31.856 11.6447 31.856 11.6716V13.6311H31.5315V10.8809H31.7224C31.739 10.8809 31.753 10.8822 31.7644 10.8848C31.7758 10.886 31.786 10.8892 31.795 10.8943C31.8038 10.8982 31.8128 10.9046 31.8217 10.9135C31.8306 10.9212 31.8401 10.9314 31.8503 10.9442L33.433 13.015C33.4305 12.9817 33.428 12.9498 33.4254 12.919C33.4242 12.887 33.4235 12.857 33.4235 12.8288V10.8809H33.7481Z" fill="#0CA49D"/>
<path id="Vector_22" d="M36.1352 13.3278L36.1333 13.6311H34.4474V10.8809H36.1333V11.1841H34.8178V12.0976H35.8831V12.3894H34.8178V13.3278H36.1352Z" fill="#0CA49D"/>
<path id="Vector_23" d="M38.0507 11.3107C38.0392 11.3299 38.0265 11.3446 38.0125 11.3548C37.9998 11.3637 37.9839 11.3682 37.9648 11.3682C37.9431 11.3682 37.9177 11.3574 37.8884 11.3356C37.8591 11.3139 37.8222 11.2902 37.7777 11.2646C37.7344 11.2377 37.6816 11.2134 37.6192 11.1917C37.5581 11.1699 37.4836 11.1591 37.3958 11.1591C37.3131 11.1591 37.2399 11.1706 37.1763 11.1936C37.1139 11.2153 37.061 11.2454 37.0178 11.2838C36.9758 11.3222 36.944 11.3676 36.9223 11.4201C36.9007 11.4713 36.8899 11.5269 36.8899 11.587C36.8899 11.6638 36.9083 11.7278 36.9452 11.7789C36.9834 11.8288 37.033 11.8717 37.0942 11.9075C37.1565 11.9434 37.2265 11.9748 37.3041 12.0016C37.3831 12.0271 37.4633 12.054 37.5448 12.0822C37.6275 12.1104 37.7077 12.1423 37.7853 12.1781C37.8642 12.2127 37.9342 12.2569 37.9953 12.3106C38.0576 12.3643 38.1074 12.4302 38.1442 12.5082C38.1824 12.5863 38.2015 12.6822 38.2015 12.7962C38.2015 12.9164 38.1812 13.0296 38.1404 13.1358C38.0997 13.2408 38.0398 13.3322 37.961 13.4103C37.8833 13.4883 37.7872 13.5498 37.6727 13.5945C37.5593 13.6393 37.4302 13.6617 37.2851 13.6617C37.1069 13.6617 36.9452 13.6297 36.8001 13.5657C36.655 13.5005 36.5309 13.4128 36.4279 13.3028L36.5347 13.1262C36.5449 13.1122 36.557 13.1007 36.571 13.0917C36.5863 13.0814 36.6029 13.0763 36.6207 13.0763C36.6372 13.0763 36.6557 13.0833 36.676 13.0974C36.6977 13.1102 36.7218 13.1269 36.7486 13.1473C36.7754 13.1678 36.8059 13.1902 36.8402 13.2145C36.8746 13.2388 36.9134 13.2612 36.9567 13.2817C37.0012 13.3021 37.0515 13.3195 37.1075 13.3335C37.1635 13.3463 37.2265 13.3527 37.2965 13.3527C37.3844 13.3527 37.4626 13.3405 37.5313 13.3162C37.6001 13.2919 37.658 13.258 37.7051 13.2145C37.7535 13.1697 37.7904 13.1167 37.8159 13.0552C37.8413 12.9938 37.8541 12.9253 37.8541 12.8499C37.8541 12.7667 37.8349 12.6989 37.7967 12.6464C37.7599 12.5927 37.7108 12.548 37.6497 12.5121C37.5887 12.4762 37.5187 12.4462 37.4397 12.4219C37.3608 12.3963 37.2806 12.3707 37.1992 12.3451C37.1177 12.3182 37.0375 12.2875 36.9586 12.253C36.8797 12.2185 36.8097 12.1737 36.7486 12.1187C36.6875 12.0636 36.6379 11.9952 36.5997 11.9133C36.5627 11.8302 36.5443 11.7278 36.5443 11.6062C36.5443 11.509 36.5627 11.415 36.5997 11.3241C36.6379 11.2333 36.6926 11.1527 36.7638 11.0823C36.8364 11.0119 36.9249 10.9556 37.0292 10.9134C37.1349 10.8712 37.2558 10.8501 37.392 10.8501C37.5448 10.8501 37.6835 10.8744 37.8082 10.923C37.9342 10.9716 38.045 11.042 38.1404 11.1341L38.0507 11.3107Z" fill="#0CA49D"/>
<path id="Vector_24" d="M39.0949 13.6311H38.7245V10.8809H39.0949V13.6311Z" fill="#0CA49D"/>
<path id="Vector_25" d="M41.2476 12.6101L40.818 11.4912C40.8053 11.4579 40.7919 11.4196 40.7779 11.376C40.7639 11.3313 40.7506 11.2839 40.7378 11.234C40.7111 11.3376 40.6838 11.424 40.6558 11.4931L40.2262 12.6101H41.2476ZM42.0189 13.6311H41.7326C41.6995 13.6311 41.6728 13.6227 41.6524 13.6061C41.632 13.5895 41.6168 13.5684 41.6066 13.5428L41.3507 12.8787H40.1231L39.8673 13.5428C39.8596 13.5659 39.845 13.5863 39.8233 13.6042C39.8017 13.6222 39.775 13.6311 39.7431 13.6311H39.4568L40.5507 10.8809H40.925L42.0189 13.6311Z" fill="#0CA49D"/>
</g>
</g>
</svg>
