<svg width="56" height="40" viewBox="0 0 56 40" fill="none" xmlns="http://www.w3.org/2000/svg">
<g id="BCA">
<rect id="Background" width="56" height="40" rx="4" fill="#0060AF"/>
<g id="logo">
<path id="Fill 1" fill-rule="evenodd" clip-rule="evenodd" d="M11.5178 23.8328C11.5178 23.2959 11.5239 21.861 11.5099 21.6842C11.5221 19.549 9.87525 18.0428 8.83482 18.1602C8.11488 18.2191 7.51139 18.4959 7.18755 19.2919C6.88716 20.0339 7.15574 21.0207 8.15404 21.2523C9.22139 21.501 9.84485 21.7079 10.296 21.9998C10.8487 22.3572 11.2999 23.04 11.3119 23.8336" fill="white"/>
<path id="Fill 6" fill-rule="evenodd" clip-rule="evenodd" d="M11.0716 23.834C11.0751 23.1459 10.6677 22.5374 10.1351 22.2104C9.66278 21.9214 9.02863 21.7316 8.0056 21.4869C7.68936 21.4107 7.35857 21.2413 7.25616 21.0254C6.98527 21.2827 6.93606 21.8612 6.98372 22.1994C7.03911 22.5905 7.52409 23.2353 8.25434 23.2605C8.70029 23.2774 9.26411 23.1701 9.53449 23.1159C10.0009 23.0209 10.7389 23.2963 10.8564 23.8332" fill="white"/>
<path id="Fill 8" fill-rule="evenodd" clip-rule="evenodd" d="M11.895 14.8325C10.6567 14.8325 9.58734 15.6023 9.59107 16.9342C9.59494 18.0543 10.5505 18.6539 10.8916 19.0822C11.4068 19.7275 11.6857 20.4915 11.7146 21.6603C11.7372 22.5906 11.7361 23.5092 11.7411 23.8347H12.0143C12.0097 23.4941 11.9973 22.5189 12.0114 21.6315C12.0299 20.4623 12.3188 19.7275 12.8343 19.0822C13.1784 18.6539 14.133 18.0543 14.1351 16.9342C14.1399 15.6023 13.0708 14.8325 11.8338 14.8325" fill="white"/>
<path id="Fill 10" fill-rule="evenodd" clip-rule="evenodd" d="M12.2093 23.8328C12.2093 23.2959 12.2028 21.861 12.2166 21.6842C12.2045 19.549 13.8504 18.0428 14.8917 18.1602C15.6116 18.2191 16.2143 18.4959 16.5392 19.2919C16.8392 20.0339 16.5692 21.0207 15.5722 21.2523C14.5041 21.501 13.8815 21.7079 13.4293 21.9998C12.8772 22.3572 12.4575 23.04 12.4446 23.8336" fill="white"/>
<path id="Fill 12" fill-rule="evenodd" clip-rule="evenodd" d="M12.6551 23.834C12.6512 23.1459 13.0585 22.5374 13.5895 22.2104C14.0639 21.9214 14.6987 21.7316 15.7208 21.4869C16.0377 21.4107 16.3681 21.2413 16.4687 21.0254C16.7409 21.2827 16.7901 21.8612 16.7423 22.1994C16.6859 22.5905 16.2021 23.2353 15.4731 23.2605C15.0274 23.2774 14.4605 23.1701 14.1913 23.1159C13.7267 23.0209 12.9866 23.2963 12.8686 23.8332" fill="white"/>
<path id="Fill 14" fill-rule="evenodd" clip-rule="evenodd" d="M13.037 26.0555L12.8787 24.9657L13.2611 24.911C13.3541 24.8991 13.4675 24.9144 13.5128 24.9693C13.5629 25.0267 13.5782 25.0742 13.5879 25.1495C13.6025 25.2428 13.5739 25.3503 13.4626 25.404V25.4073C13.5868 25.4073 13.6618 25.4914 13.6837 25.6335C13.6868 25.6636 13.6964 25.736 13.6868 25.7965C13.6616 25.9404 13.5706 25.9867 13.4168 26.007L13.037 26.0555ZM13.2831 25.8605C13.3285 25.8543 13.3745 25.852 13.4104 25.8303C13.4655 25.7965 13.4605 25.7241 13.4528 25.6702C13.4337 25.552 13.401 25.507 13.2679 25.5256L13.1842 25.5377L13.2373 25.8664L13.2831 25.8605ZM13.2031 25.3568C13.2538 25.3491 13.3223 25.3433 13.3509 25.298C13.366 25.2678 13.385 25.2437 13.3724 25.1765C13.3568 25.0968 13.3289 25.0473 13.2213 25.0664L13.1212 25.0816L13.1608 25.3609L13.2031 25.3568Z" fill="white"/>
<path id="Fill 16" fill-rule="evenodd" clip-rule="evenodd" d="M14.6937 25.4C14.6966 25.4203 14.7001 25.4429 14.7014 25.4632C14.7323 25.6618 14.6937 25.8265 14.4566 25.8718C14.1061 25.9353 14.039 25.7302 13.9775 25.4429L13.9446 25.2873C13.8963 25.0125 13.8756 24.8044 14.2172 24.7402C14.4098 24.7072 14.537 24.7794 14.59 24.9601C14.5982 24.987 14.6085 25.0136 14.6124 25.0408L14.4028 25.0816C14.3786 25.0136 14.3465 24.8923 14.2522 24.9025C14.083 24.9218 14.1389 25.1203 14.1563 25.2033L14.2192 25.5017C14.2382 25.5919 14.2758 25.736 14.4223 25.7082C14.5411 25.6857 14.4892 25.5111 14.4787 25.4395" fill="white"/>
<path id="Fill 18" fill-rule="evenodd" clip-rule="evenodd" d="M15.03 25.7298L14.9576 24.602L15.2391 24.521L15.8295 25.5019L15.6078 25.5644L15.4679 25.3151L15.2217 25.3848L15.2535 25.6683L15.03 25.7298ZM15.2011 25.2027L15.379 25.1541L15.1427 24.6978L15.2011 25.2027Z" fill="white"/>
<path id="Fill 20" fill-rule="evenodd" clip-rule="evenodd" d="M8.07507 24.8771C8.16318 24.6113 8.24201 24.4154 8.57834 24.5023C8.7583 24.5498 8.86985 24.6245 8.86457 24.8216C8.86367 24.8654 8.84834 24.9102 8.83829 24.9534L8.62897 24.899C8.6564 24.7901 8.67379 24.7038 8.53158 24.6625C8.36722 24.62 8.32716 24.808 8.30449 24.8891L8.21934 25.1846C8.19229 25.2724 8.15983 25.4175 8.30449 25.4551C8.42403 25.4853 8.49642 25.3748 8.5397 25.2133L8.39337 25.1766L8.44399 25.0057L8.78831 25.11L8.62485 25.6798L8.4664 25.6393L8.50209 25.5188H8.49758C8.42454 25.6174 8.33566 25.6277 8.25773 25.6135C7.91341 25.5259 7.94935 25.3137 8.03153 25.0303" fill="white"/>
<path id="Fill 22" fill-rule="evenodd" clip-rule="evenodd" d="M9.35664 25.3583L9.25294 25.8219L9.01953 25.7744L9.26827 24.6919L9.66618 24.7765C9.89907 24.824 9.9694 24.9216 9.93643 25.123C9.91762 25.2384 9.85721 25.3628 9.70971 25.3527L9.70817 25.3509C9.83286 25.3919 9.84342 25.4513 9.82165 25.5537C9.81225 25.5974 9.74746 25.8619 9.79215 25.9046L9.7937 25.9371L9.55218 25.8776C9.54213 25.8044 9.57639 25.6726 9.58992 25.5995C9.60344 25.5349 9.62521 25.4438 9.55565 25.4097C9.50129 25.3822 9.48094 25.3836 9.41937 25.3703L9.35664 25.3583ZM9.39644 25.1906L9.55359 25.2306C9.64904 25.2437 9.70211 25.197 9.72092 25.0882C9.73792 24.9885 9.7159 24.9497 9.63024 24.9304L9.46175 24.8981L9.39644 25.1906Z" fill="white"/>
<path id="Fill 24" fill-rule="evenodd" clip-rule="evenodd" d="M10.8538 24.9336L11.0847 24.9589L10.9852 25.72C10.9369 25.9613 10.838 26.0667 10.5564 26.0338C10.2699 25.9995 10.2019 25.8767 10.2192 25.6334L10.3194 24.873L10.552 24.8981L10.4522 25.6414C10.4415 25.7222 10.4218 25.8418 10.5741 25.8564C10.7092 25.8661 10.7398 25.7816 10.7552 25.6767" fill="white"/>
<path id="Fill 26" fill-rule="evenodd" clip-rule="evenodd" d="M11.339 26.0755L11.4085 24.9873L11.8519 25.0054C12.0616 25.0152 12.1164 25.1765 12.1099 25.3305C12.1038 25.4241 12.0728 25.5286 11.9863 25.5853C11.9153 25.6335 11.824 25.645 11.7395 25.6411L11.5949 25.6335L11.5661 26.0896L11.339 26.0755ZM11.6014 25.4676L11.7189 25.4737C11.8143 25.477 11.8776 25.4414 11.8858 25.3093C11.8906 25.1826 11.8396 25.1609 11.7159 25.1558L11.6229 25.1528L11.6014 25.4676Z" fill="white"/>
<path id="Fill 28" fill-rule="evenodd" clip-rule="evenodd" d="M42.619 15.8842L40.8564 18.9003C40.191 18.3909 39.3787 18.0162 38.3422 18.0162C35.8892 18.0162 34.8927 19.7397 34.8927 20.9539C34.8927 21.8552 35.5187 23.1849 37.7013 23.1849C38.6176 23.1849 39.9199 22.5842 40.2947 22.3107L38.5515 25.8098C37.7205 25.9661 37.4474 26.063 36.7441 26.0835C32.8375 26.1934 31.259 23.9311 31.26 21.6195C31.2627 18.5636 34.1448 14.8471 38.9229 14.8471C39.2155 14.8471 39.5736 14.9427 39.8798 15.0484L40.1894 14.6753" fill="white"/>
<path id="Fill 30" fill-rule="evenodd" clip-rule="evenodd" d="M49.8923 14.77L50.3914 25.7315H46.6767L46.6746 23.8517H44.1415L43.3079 25.7315H39.2792L43.4911 17.9041L42.5414 17.8983L44.3458 14.77H49.8923ZM46.6504 18.1234L45.2184 21.3117H46.6937L46.6504 18.1234Z" fill="white"/>
<path id="Fill 32" fill-rule="evenodd" clip-rule="evenodd" d="M28.9149 14.7704C30.7545 14.7801 31.794 15.7215 31.794 17.0811C31.794 18.3347 30.6977 19.4442 29.4942 20.018C30.7332 20.4475 30.8404 21.5015 30.8404 22.247C30.8404 24.0487 28.9229 25.7319 26.4302 25.7319H20.9939L23.1144 18.0135L22.2434 18.0088L24.024 14.7704C24.024 14.7704 27.419 14.7607 28.9149 14.7704ZM27.1101 19.2147C27.4906 19.2147 28.1625 19.1239 28.3305 18.4297C28.5145 17.676 27.884 17.6557 27.5816 17.6557L26.5008 17.6513L26.1239 19.2147H27.1101ZM25.5821 21.1517L25.0845 22.9533H26.3572C26.8577 22.9533 27.5401 22.7189 27.7073 22.1326C27.8724 21.5448 27.3954 21.1517 26.8966 21.1517H25.5821Z" fill="white"/>
<g id="group">
<path id="Fill 3" fill-rule="evenodd" clip-rule="evenodd" d="M11.9439 27.0786C10.0616 27.0786 8.12731 26.6416 6.19549 25.7772L6.14809 25.7553L6.12542 25.7097C5.2585 23.9847 4.79993 22.0981 4.79993 20.2521C4.79993 18.4088 5.2397 16.6028 6.10713 14.8801L6.13109 14.8343L6.17939 14.8115C7.96642 14.0135 9.88871 13.6094 11.895 13.6094C13.7637 13.6094 15.7596 14.0593 17.6658 14.9129L17.7146 14.9334L17.7373 14.9801C18.6207 16.7369 19.0866 18.6232 19.0866 20.4386C19.0866 22.2468 18.6393 24.0545 17.7547 25.8103L17.7315 25.8563L17.6823 25.8777C15.9225 26.6629 13.9381 27.0786 11.9439 27.0786ZM6.37429 25.5407C8.25084 26.373 10.1226 26.7931 11.9439 26.7931C13.8751 26.7931 15.7956 26.3952 17.5053 25.6409C18.3546 23.9395 18.7851 22.1885 18.7851 20.4386C18.7851 18.6814 18.3358 16.8538 17.4859 15.1486C15.636 14.3288 13.704 13.8941 11.895 13.8941C9.95273 13.8941 8.09098 14.2825 6.35806 15.0487C5.52618 16.7183 5.10277 18.468 5.10277 20.2521C5.10277 22.0394 5.54267 23.8679 6.37429 25.5407Z" fill="white"/>
</g>
</g>
</g>
</svg>
