<svg width="56" height="40" viewBox="0 0 56 40" fill="none" xmlns="http://www.w3.org/2000/svg">
<g id="DANA">
<rect id="Background" width="56" height="40" rx="4" fill="#108EE9"/>
<g id="logo">
<path id="shape" fill-rule="evenodd" clip-rule="evenodd" d="M12.0876 13.6001H11.9009C10.3497 13.6328 8.82184 14.2534 7.69531 15.3212C6.37464 16.5438 5.61678 18.3256 5.59998 20.1213V20.2884C5.63171 22.0468 6.36811 23.7874 7.65051 24.997C8.78638 26.0946 10.3432 26.734 11.9233 26.7601H12.1062C14.2417 26.7358 16.2969 25.5402 17.4076 23.723C18.3577 22.2166 18.6498 20.322 18.228 18.5944C17.8742 17.1038 16.982 15.7458 15.7462 14.8386C14.6962 14.0546 13.397 13.6244 12.0876 13.6001ZM9.18771 18.9472C9.79064 19.1236 10.4337 19.0162 11.0208 18.8268C11.3443 18.7201 11.6627 18.5982 11.9812 18.4763L11.9812 18.4763L11.9812 18.4763L11.9812 18.4763L11.9812 18.4763C12.4961 18.2792 13.011 18.0821 13.5473 17.9494C14.265 17.7814 15.0714 17.9168 15.6464 18.3928C15.7601 18.502 15.7599 18.6599 15.7596 18.8096C15.7596 18.8466 15.7595 18.8831 15.7612 18.9182C15.7548 19.4 15.757 19.882 15.7593 20.3639V20.364V20.364V20.3641V20.3641V20.3641C15.7627 21.0743 15.766 21.7844 15.7416 22.4938C15.655 22.457 15.5688 22.4179 15.4825 22.3787L15.4825 22.3787L15.4825 22.3787C15.1272 22.2174 14.77 22.0552 14.3705 22.0477C13.5374 22.0019 12.7672 22.2784 11.9956 22.5555C11.3677 22.7809 10.7389 23.0067 10.0744 23.0594C9.47144 23.1014 8.84144 22.9586 8.35238 22.5956C8.25219 22.4569 8.25718 22.2833 8.26207 22.1134C8.26406 22.0443 8.26604 21.9758 8.26091 21.9105C8.2702 21.4793 8.26608 21.0472 8.26197 20.6151C8.25534 19.9184 8.2487 19.2217 8.29824 18.5281C8.40825 18.5771 8.5141 18.6354 8.61992 18.6937L8.61992 18.6937L8.61993 18.6937L8.61994 18.6937L8.61994 18.6937C8.8023 18.7942 8.98454 18.8946 9.18771 18.9472ZM21.8408 16.8777C21.5107 16.8798 21.1806 16.8819 20.8506 16.878C20.8502 17.9858 20.8502 19.0939 20.8502 20.2021C20.8502 21.3104 20.8502 22.4187 20.8497 23.527C21.2174 23.5275 21.5849 23.5275 21.9524 23.5275C22.3199 23.5275 22.6874 23.5275 23.0552 23.528C23.59 23.5289 24.1304 23.4262 24.6082 23.1789C25.8794 22.5554 26.6158 21.0565 26.3722 19.6668C26.1706 18.2201 24.9069 16.9909 23.4388 16.8929C22.9063 16.871 22.3735 16.8744 21.8408 16.8777ZM22.2398 21.5526C22.2426 20.471 22.2453 19.3894 22.2357 18.3078C22.3783 18.3122 22.5217 18.3097 22.6652 18.3072H22.6653C22.9792 18.3018 23.2937 18.2963 23.6012 18.3629C24.3674 18.5384 24.9582 19.2524 25.0124 20.0326C25.0936 20.8092 24.6428 21.6109 23.926 21.9282C23.5374 22.1118 23.1104 22.1029 22.6878 22.0941C22.5368 22.0909 22.3864 22.0878 22.2385 22.0934L22.2398 21.5526ZM28.8418 19.5669C28.8866 18.1249 30.1849 16.8294 31.6446 16.8789C33.0754 16.864 34.3317 18.1314 34.3886 19.5454C34.4035 20.3577 34.4012 21.1703 34.3989 21.9829V21.9831V21.9831V21.9832V21.9832C34.3975 22.4972 34.396 23.0113 34.3989 23.5252L34.3977 23.5252C33.9343 23.5261 33.4717 23.527 33.0092 23.5252C33.0068 23.2873 33.0071 23.0495 33.0073 22.8117V22.8112V22.8112V22.8112V22.8112C33.0075 22.5733 33.0078 22.3356 33.0054 22.0981C32.4597 22.1008 31.9143 22.1004 31.369 22.0999C30.9873 22.0995 30.6057 22.0992 30.2241 22.1C30.2227 22.2772 30.2234 22.4546 30.2241 22.632V22.6321V22.6321V22.6326C30.2252 22.9324 30.2264 23.2322 30.2176 23.5317C29.9096 23.5242 29.602 23.5251 29.2945 23.5259H29.2944H29.2944H29.2943C29.1407 23.5263 28.9871 23.5267 28.8334 23.5261C28.8351 23.0462 28.8339 22.5662 28.8326 22.0861C28.8304 21.2461 28.8282 20.4061 28.8418 19.5669ZM30.5797 18.7848C30.2009 19.194 30.212 19.7463 30.2225 20.2755V20.2756V20.2757V20.2758C30.2252 20.4102 30.2279 20.5432 30.2241 20.672C30.5948 20.6723 30.9656 20.6721 31.3365 20.6719H31.3365H31.3366H31.3366H31.337C31.8932 20.6716 32.4495 20.6712 33.0054 20.6729C33.002 20.5447 33.005 20.4124 33.008 20.2786V20.2785V20.2784V20.2783C33.0196 19.761 33.0317 19.2223 32.675 18.8137C32.1776 18.1604 31.0949 18.1454 30.5797 18.7848ZM36.8302 19.5818C36.8713 18.3125 37.8634 17.1346 39.1225 16.9209C40.0596 16.7408 41.0638 17.1094 41.6742 17.8393C42.1465 18.3592 42.3873 19.0629 42.3873 19.761C42.3892 20.5979 42.3885 21.4343 42.3879 22.2708V22.2709L42.3879 22.2859C42.3876 22.6993 42.3873 23.1126 42.3873 23.5261C42.2299 23.5271 42.0724 23.5265 41.9148 23.5259H41.9148H41.9147C41.6108 23.5248 41.3068 23.5237 41.0032 23.5336C40.9931 22.8224 40.9948 22.111 40.9964 21.3997C40.9976 20.8524 40.9988 20.3053 40.9948 19.7582C41.0022 19.2505 40.7306 18.7446 40.2864 18.4926C39.8253 18.2164 39.2009 18.2574 38.7781 18.5897C38.4122 18.8632 38.2078 19.3186 38.2144 19.7722C38.2122 20.4864 38.2125 21.2003 38.2129 21.9142V21.9176C38.2131 22.4537 38.2133 22.9898 38.2125 23.5261C38.0433 23.5254 37.8741 23.5257 37.705 23.526H37.7045C37.4081 23.5266 37.1117 23.5271 36.8153 23.5224C36.8252 22.8892 36.8234 22.2558 36.8216 21.6225V21.6222C36.8196 20.942 36.8177 20.2618 36.8302 19.5818ZM45.2638 18.1669C45.8005 17.3306 46.7917 16.7912 47.7932 16.8864C48.9253 16.9564 49.9296 17.8188 50.2432 18.8968C50.359 19.2607 50.3644 19.6409 50.3699 20.0208V20.0208C50.3731 20.2381 50.3762 20.4552 50.4 20.6692V23.5186C50.0444 23.5284 49.6888 23.5272 49.3333 23.526H49.3332L49.3324 23.526C49.2141 23.5256 49.0958 23.5252 48.9776 23.5252C48.977 23.3719 48.9772 23.2185 48.9775 23.0651C48.9781 22.7411 48.9786 22.4171 48.971 22.0934C48.4081 22.102 47.8448 22.1008 47.2813 22.0996H47.2813C46.919 22.0989 46.5567 22.0981 46.1944 22.1C46.1939 22.3375 46.1939 22.575 46.1939 22.8127C46.1939 23.0503 46.1939 23.2881 46.1934 23.5261H44.8028C44.8023 22.9134 44.8023 22.3009 44.8023 21.6885C44.8023 21.0761 44.8023 20.4638 44.8018 19.8516C44.7953 19.2617 44.9362 18.6625 45.2638 18.1669ZM46.5425 18.7941C46.1711 19.2019 46.1822 19.7497 46.1928 20.2749V20.2751C46.1955 20.4098 46.1982 20.543 46.1944 20.672C46.8129 20.6726 47.4315 20.6724 48.0498 20.6722L48.9766 20.672C48.9725 20.5403 48.9754 20.4044 48.9784 20.2671C48.9894 19.752 49.0008 19.2169 48.6434 18.8109C48.1413 18.1566 47.054 18.1482 46.5425 18.7941Z" fill="white"/>
</g>
</g>
</svg>
