<svg width="56" height="40" viewBox="0 0 56 40" fill="none" xmlns="http://www.w3.org/2000/svg">
<g id="GOPAY">
<rect id="Background" width="56" height="40" rx="4" fill="white"/>
<g id="logo">
<path id="Combined Shape" fill-rule="evenodd" clip-rule="evenodd" d="M9.02925 15.3181C9.56035 15.2315 10.1052 15.2416 10.6388 15.2949C11.1336 15.3971 11.6327 15.5112 12.0866 15.74C13.0052 16.1783 13.7871 16.8888 14.3082 17.7635C14.7402 18.5717 15.0374 19.4784 14.9929 20.4045C15.0054 22.3056 13.8009 24.1171 12.0948 24.9254C10.9887 25.4514 9.70205 25.5236 8.52011 25.2351C7.72065 24.9893 6.9494 24.5918 6.3669 23.9811C5.81198 23.4663 5.39312 22.8104 5.12726 22.1044C4.78052 21.2359 4.74917 20.2703 4.89652 19.3555C5.16614 17.9967 6.00573 16.7508 7.19394 16.0285C7.74698 15.6642 8.38279 15.4479 9.02925 15.3181ZM8.31946 17.7578C7.91941 17.7986 7.48238 17.939 7.26104 18.3002C7.01651 18.6461 6.99099 19.0788 6.96675 19.4899L6.96069 19.5906C6.9557 19.6943 6.94645 19.7979 6.93719 19.9014V19.9014C6.91851 20.1104 6.89982 20.3195 6.91617 20.5299C6.92836 20.672 6.93696 20.8146 6.94556 20.9572C6.96706 21.3135 6.98856 21.67 7.06603 22.0197C7.16197 22.4605 7.55887 22.8023 7.99654 22.8825C8.81222 23.0296 9.64316 23.0166 10.4691 23.0038L10.6959 23.0004C11.0339 22.9816 11.3718 22.9471 11.706 22.8938C12.2064 22.8286 12.6485 22.421 12.7306 21.9194C12.8742 21.3043 12.8999 20.6697 12.8573 20.0421C12.777 19.6395 12.4923 19.2765 12.1054 19.1291C11.9311 19.0449 11.7378 19.0454 11.5482 19.0459C11.5147 19.046 11.4814 19.0461 11.4483 19.0457C11.0753 19.0462 10.7023 19.046 10.3293 19.0458H10.3292C9.6765 19.0454 9.02388 19.045 8.3715 19.0482C8.2965 19.0496 8.22651 19.024 8.15713 18.9986C8.13139 18.9891 8.10573 18.9797 8.07993 18.9717C8.07805 18.8313 8.08307 18.6212 8.2718 18.6175C8.76324 18.6064 9.25513 18.6096 9.74699 18.6129H9.74702C10.3948 18.6172 11.0426 18.6215 11.6891 18.593C11.6189 18.267 11.4201 17.9265 11.0778 17.8362C10.7686 17.7534 10.4488 17.7114 10.1309 17.682C10.0403 17.6808 9.94945 17.6791 9.85856 17.6773C9.34358 17.6675 8.82631 17.6576 8.31946 17.7578ZM11.8208 20.4967C11.6559 20.4522 11.4584 20.5174 11.4007 20.6873C11.3645 20.8829 11.4225 21.0714 11.4801 21.2586C11.5043 21.3372 11.5285 21.4156 11.5455 21.4943C11.5643 21.5052 11.5925 21.5215 11.6207 21.5378C11.649 21.5541 11.6772 21.5705 11.696 21.5814C11.7606 21.5438 11.8264 21.51 11.8948 21.4805C11.9022 21.315 11.942 21.1558 11.9819 20.9968C11.9996 20.9262 12.0172 20.8556 12.0321 20.7845C12.0014 20.6672 11.9242 20.56 11.8208 20.4967Z" fill="#01ACD7"/>
<path id="Combined Shape_2" fill-rule="evenodd" clip-rule="evenodd" d="M21.435 16.8804C20.9515 16.691 20.4148 16.7124 19.9081 16.7751C18.8121 16.9444 17.8502 17.7808 17.5254 18.8411C17.3781 19.2612 17.3812 19.7146 17.4201 20.1529C17.5512 21.274 18.3945 22.2584 19.4648 22.6014C20.2235 22.8309 21.0989 22.8384 21.7993 22.4277C21.8907 22.3771 21.9738 22.3146 22.0569 22.2521C22.1345 22.1937 22.212 22.1353 22.2965 22.0866L22.2978 22.1449C22.3082 22.607 22.3199 23.1297 21.9692 23.4786C21.7341 23.7658 21.3785 23.9169 21.0192 23.9721C20.2424 24.1144 19.4209 23.8492 18.8435 23.3175C18.7151 23.4482 18.5806 23.5731 18.4461 23.698C18.2285 23.9001 18.011 24.1022 17.8195 24.3289C18.424 24.9007 19.1896 25.3133 20.0198 25.423C20.8311 25.5252 21.704 25.4757 22.4269 25.0587C23.0401 24.7182 23.523 24.137 23.7123 23.4592C23.8299 23.1214 23.8283 22.7606 23.8267 22.4076L23.8264 22.3481C23.8258 20.4789 23.8258 18.6104 23.8264 16.7412C23.5326 16.7376 23.2388 16.7377 22.945 16.7379C22.7328 16.738 22.5206 16.7381 22.3084 16.7368L22.3091 16.8908C22.3101 17.0577 22.311 17.2246 22.3072 17.3914C22.0457 17.1776 21.7566 16.9889 21.435 16.8804ZM19.5094 18.5094C19.7608 18.2862 20.0944 18.2009 20.4198 18.1526C21.0675 18.0542 21.7961 18.3508 22.1278 18.9308C22.2616 19.1658 22.256 19.4314 22.2505 19.6945V19.6945V19.6945V19.6945V19.6945C22.2486 19.7866 22.2467 19.8784 22.2507 19.9685C22.3053 20.5215 21.8745 21.0094 21.381 21.1975C20.7847 21.422 20.0492 21.437 19.5288 21.0225C18.7488 20.4375 18.7331 19.1026 19.5094 18.5094ZM34.7568 16.7381C34.1084 16.7337 33.4325 16.9274 32.9654 17.3952C32.9612 17.3354 32.9573 17.2757 32.9534 17.216C32.9467 17.1131 32.9401 17.0104 32.9321 16.908C32.4217 16.9017 31.9113 16.8998 31.4009 16.908C31.4016 18.4555 31.4015 20.003 31.4014 21.5505C31.4014 22.7111 31.4013 23.8717 31.4016 25.0324C31.7602 25.0555 32.1197 25.0535 32.4791 25.0515H32.4791H32.4791H32.4791H32.4791H32.4792H32.4792H32.4792H32.4792C32.6464 25.0505 32.8134 25.0496 32.9804 25.0512C32.9921 24.3343 32.9895 23.617 32.9869 22.8997V22.8997V22.8996V22.8996V22.8994C32.986 22.6544 32.9851 22.4094 32.9848 22.1644C34.1109 23.0591 35.9036 22.9607 36.9163 21.9342C38.0186 20.8288 38.0819 18.8587 37.0203 17.7049C36.4617 17.0629 35.6039 16.708 34.7568 16.7381ZM33.0588 19.0656C33.2237 18.5696 33.7278 18.2737 34.2175 18.1765C34.7223 18.0743 35.2866 18.2015 35.6766 18.5452C36.3375 19.1458 36.3425 20.3002 35.7193 20.9291C35.0941 21.5342 33.988 21.5229 33.3667 20.9178C33.1021 20.6839 32.9635 20.3178 32.9867 19.9679C32.9919 19.8757 32.9894 19.7821 32.9869 19.6884V19.6884V19.6884V19.6883V19.6883C32.9813 19.4763 32.9757 19.2639 33.0588 19.0656ZM26.8224 16.8152C27.7134 16.6359 28.6884 16.7437 29.464 17.2397C30.0541 17.5958 30.503 18.1733 30.7037 18.8323C30.9789 19.6983 30.8554 20.689 30.34 21.4426C29.8277 22.202 28.953 22.6672 28.0501 22.7544C27.4939 22.792 26.9189 22.7732 26.3929 22.5707C25.5213 22.2778 24.7902 21.5586 24.5331 20.6701C24.2572 19.8375 24.3851 18.8844 24.8579 18.147C25.2956 17.4573 26.0292 16.9864 26.8224 16.8152ZM27.1955 18.1846C26.9735 18.2479 26.7659 18.3583 26.5841 18.4994C25.9546 18.9954 25.8009 19.976 26.2493 20.6401C26.7616 21.4847 28.0833 21.6514 28.7768 20.9442C29.116 20.6325 29.2772 20.1673 29.232 19.7114C29.2703 18.7007 28.1492 17.8861 27.1955 18.1846ZM41.7506 16.7757C40.8383 16.6559 39.8501 16.7832 39.0933 17.3406C38.6563 17.688 38.2825 18.1658 38.2086 18.7339C38.4264 18.7712 38.6425 18.8183 38.8586 18.8655L38.8587 18.8655C39.1401 18.9268 39.4216 18.9882 39.7072 19.028C39.8307 18.532 40.2608 18.1376 40.7656 18.0561C41.0923 17.9996 41.4321 18.0166 41.75 18.1131C42.0278 18.2034 42.2391 18.5075 42.1174 18.7972C41.8909 19.0038 41.5826 19.0663 41.289 19.1258C41.2511 19.1335 41.2135 19.1411 41.1763 19.149L41.0234 19.1707C40.278 19.276 39.5031 19.3854 38.8688 19.8161C38.0844 20.3648 38.0813 21.6558 38.8067 22.2553C39.4056 22.7701 40.2489 22.829 41.0001 22.7293C41.5199 22.6321 42.0435 22.407 42.3752 21.9788C42.377 22.0844 42.377 22.1901 42.377 22.2958C42.377 22.4015 42.377 22.5073 42.3789 22.6133C42.4934 22.6132 42.6079 22.6128 42.7224 22.6124C43.0853 22.6113 43.4486 22.6101 43.8123 22.6158C43.8137 21.9074 43.8135 21.1993 43.8133 20.4912C43.8132 19.9602 43.813 19.4292 43.8136 18.8982C43.8192 18.4674 43.6618 18.0479 43.4248 17.693C43.0398 17.1525 42.3864 16.8798 41.7506 16.7757ZM39.7768 21.0671C39.694 20.8708 39.8539 20.677 40.0138 20.5805C40.3362 20.4028 40.6992 20.3365 41.0615 20.2703C41.498 20.1905 41.9336 20.111 42.2961 19.8368C42.2927 19.9229 42.2955 20.013 42.2982 20.1044V20.1045C42.3077 20.413 42.3175 20.7358 42.0911 20.9661C41.6534 21.4025 40.9869 21.4828 40.3981 21.4452C40.1536 21.4307 39.8319 21.3461 39.7768 21.0671ZM44.4434 16.9036C44.2749 16.9039 44.1063 16.9042 43.9377 16.9042C44.3825 17.8337 44.8372 18.7584 45.2919 19.6832C45.7185 20.5509 46.1451 21.4187 46.5637 22.2904C46.3579 22.7427 46.1343 23.1868 45.9106 23.6308C45.6741 24.1002 45.4377 24.5696 45.2225 25.0487C45.4036 25.0479 45.5849 25.0493 45.7662 25.0507C46.1692 25.0538 46.5724 25.0569 46.975 25.0361C48.2962 22.3286 49.6161 19.6211 50.9347 16.9124C50.3422 16.8973 49.7502 16.8998 49.1583 16.9099C48.5902 18.157 48.0153 19.4017 47.4371 20.6438C47.2667 20.2757 47.0944 19.9085 46.9221 19.5412C46.6407 18.9413 46.3593 18.3414 46.0859 17.7382C46.0421 17.64 45.9939 17.5437 45.9456 17.4474C45.8571 17.2709 45.7687 17.0944 45.7078 16.9061C45.2864 16.9021 44.8649 16.9028 44.4434 16.9036Z" fill="#010101"/>
</g>
</g>
</svg>
