<svg width="56" height="40" viewBox="0 0 56 40" fill="none" xmlns="http://www.w3.org/2000/svg">
<g id="MEGA">
<rect id="Background" width="56" height="40" rx="4" fill="white"/>
<g id="logo">
<path id="Fill 4" fill-rule="evenodd" clip-rule="evenodd" d="M31.4455 25.7881L30.2135 28.214L28.9815 25.7881H27.6569V31.287H29.005V28.5378C29.005 28.5378 29.6668 29.6973 29.7659 29.8704C29.8652 30.0435 30.0345 30.1333 30.2134 30.1333C30.3926 30.1333 30.562 30.0435 30.6612 29.8704C30.7604 29.6973 31.4222 28.5378 31.4222 28.5378V31.287H32.7703V25.7881H31.4455Z" fill="#595A59"/>
<path id="Fill 6" fill-rule="evenodd" clip-rule="evenodd" d="M33.9011 31.2866V25.7876H37.6302V26.9927H35.2491V27.9108H37.2832V29.117H35.2491V30.083H37.6302V31.2866H33.9011Z" fill="#595A59"/>
<path id="Fill 8" fill-rule="evenodd" clip-rule="evenodd" d="M42.0823 30.7624C41.6122 31.2486 41.0883 31.3792 40.4879 31.3792C39.8485 31.3792 39.3627 31.1647 38.9626 30.7624C38.3845 30.1828 38.4076 29.3475 38.4076 28.5222C38.4076 27.6959 38.3845 26.8678 38.9626 26.2876C39.3627 25.8864 39.8264 25.6709 40.4879 25.6709C41.8968 25.6709 42.4983 26.589 42.6286 27.4932H41.2739C41.1651 27.0756 40.9492 26.8744 40.4879 26.8744C40.2413 26.8744 40.0559 26.9837 39.9563 27.1149C39.8325 27.2768 39.7561 27.518 39.7561 28.5222C39.7561 29.5256 39.8325 29.7816 39.9563 29.9437C40.0559 30.0767 40.2413 30.1755 40.4879 30.1755C40.7728 30.1755 40.9649 30.091 41.0883 29.9589C41.2425 29.8046 41.297 29.5299 41.297 29.3217V29.2442H40.4879V28.115H42.6368V28.88C42.6368 29.7699 42.4983 30.3384 42.0823 30.7624Z" fill="#595A59"/>
<path id="Fill 10" fill-rule="evenodd" clip-rule="evenodd" d="M44.9289 29.3674L45.4331 27.7749L45.9374 29.3674H44.9289ZM45.953 25.7876H44.9133L42.9185 31.2866H44.3047L44.5741 30.4677H46.2922L46.5616 31.2866H47.9479L45.953 25.7876Z" fill="#595A59"/>
<path id="Fill 12" fill-rule="evenodd" clip-rule="evenodd" d="M10.1454 28.7454H8.6507V30.7616H10.1454C10.8234 30.7616 11.2472 30.3675 11.2472 29.7495C11.2472 29.1316 10.8234 28.7454 10.1454 28.7454ZM10.0838 26.312H8.6507V28.2201H10.0838C10.6925 28.2201 11.1625 27.9188 11.1625 27.2621C11.1625 26.6054 10.6925 26.312 10.0838 26.312ZM10.1994 31.2869H8.06506V25.7866H10.13C11.0854 25.7866 11.748 26.3351 11.748 27.2544C11.748 27.8338 11.4013 28.2896 10.939 28.4595C11.463 28.6526 11.8328 29.1084 11.8328 29.765C11.8328 30.7616 11.1701 31.2869 10.1994 31.2869Z" fill="#595A59"/>
<path id="Fill 14" fill-rule="evenodd" clip-rule="evenodd" d="M14.4753 26.6286L13.4429 29.5332H15.4924L14.4753 26.6286ZM16.101 31.2869L15.6618 30.0432H13.2656L12.8264 31.2869H12.2024L14.221 25.7866H14.7141L16.7251 31.2869H16.101Z" fill="#595A59"/>
<path id="Fill 16" fill-rule="evenodd" clip-rule="evenodd" d="M20.8007 31.2868L17.8883 26.8758V31.2868H17.3027V25.7866H17.8574L20.77 30.1822V25.7866H21.3554V31.2868H20.8007Z" fill="#595A59"/>
<path id="Fill 18" fill-rule="evenodd" clip-rule="evenodd" d="M26.0474 31.2868L24.3755 28.3591L23.2197 29.7494V31.2868H22.6342V25.7866H23.2197V28.9461L25.7777 25.7866H26.4943L24.7685 27.911L26.7409 31.2868H26.0474Z" fill="#595A59"/>
<path id="Fill 20" fill-rule="evenodd" clip-rule="evenodd" d="M30.0254 8.01953L28.0065 12.5647L31.2034 19.7626L36.4185 8.01953H30.0254Z" fill="#949594"/>
<path id="Fill 22" fill-rule="evenodd" clip-rule="evenodd" d="M36.4184 8.01953H30.0253L36.2249 21.9793H42.619L36.4184 8.01953Z" fill="#595A59"/>
<path id="Fill 24" fill-rule="evenodd" clip-rule="evenodd" d="M25.9896 8.01953H19.5964L24.8113 19.7626L28.0085 12.5647L25.9896 8.01953Z" fill="#EC952D"/>
<path id="Fill 26" fill-rule="evenodd" clip-rule="evenodd" d="M19.5964 8.01953L13.3959 21.9793H19.7902L25.9896 8.01953H19.5964Z" fill="#F9C623"/>
<path id="Fill 28" fill-rule="evenodd" clip-rule="evenodd" d="M28.0076 12.5649L24.8114 19.7628C25.3689 20.9728 26.5911 21.8088 28.0076 21.8088C29.424 21.8088 30.6461 20.9728 31.2034 19.7628L28.0076 12.5649Z" fill="#E3672A"/>
</g>
</g>
</svg>
