<svg width="56" height="40" viewBox="0 0 56 40" fill="none" xmlns="http://www.w3.org/2000/svg">
<g id="VISA">
<rect id="Background" width="56" height="40" rx="4" fill="#0742A6"/>
<g id="logo">
<path id="polygon9" fill-rule="evenodd" clip-rule="evenodd" d="M25.6179 25.3952H22.7861L24.5573 14.7295H27.3889L25.6179 25.3952Z" fill="white"/>
<path id="path11" fill-rule="evenodd" clip-rule="evenodd" d="M35.8833 14.9902C35.3247 14.7744 34.4388 14.5361 33.3434 14.5361C30.547 14.5361 28.5777 15.9884 28.5657 18.0647C28.5424 19.5966 29.9756 20.4475 31.0475 20.9583C32.143 21.4802 32.5154 21.8209 32.5154 22.2861C32.5043 23.0006 31.6302 23.33 30.8149 23.33C29.6843 23.33 29.0785 23.1602 28.1579 22.7627L27.7851 22.5923L27.3888 24.9865C28.0529 25.2811 29.2766 25.5426 30.547 25.5541C33.5183 25.5541 35.4526 24.1243 35.4756 21.9117C35.4869 20.6975 34.7301 19.7672 33.0986 19.007C32.1082 18.519 31.5016 18.1899 31.5016 17.6906C31.5132 17.2366 32.0147 16.7717 33.1327 16.7717C34.0533 16.7489 34.7296 16.9644 35.242 17.1801L35.4982 17.2933L35.8833 14.9902Z" fill="white"/>
<path id="path13" fill-rule="evenodd" clip-rule="evenodd" d="M40.952 14.7295H43.1424L45.4269 25.395H42.805C42.805 25.395 42.5484 24.1696 42.4671 23.7951H38.8313C38.7262 24.0786 38.237 25.395 38.237 25.395H35.2657L39.472 15.6144C39.7634 14.9222 40.2766 14.7295 40.952 14.7295ZM40.7775 18.6325C40.7775 18.6325 39.8801 21.004 39.6469 21.6167H42.0007C41.8842 21.0835 41.348 18.5304 41.348 18.5304L41.1501 17.6114C41.0667 17.8481 40.9462 18.1734 40.8649 18.3929C40.8098 18.5417 40.7727 18.6417 40.7775 18.6325Z" fill="white"/>
<path id="path15" fill-rule="evenodd" clip-rule="evenodd" d="M20.421 14.7295L17.6478 22.0025L17.3448 20.5274C16.8321 18.8254 15.2241 16.9762 13.4297 16.0567L15.9699 25.3839H18.9644L23.4154 14.7295H20.421V14.7295Z" fill="white"/>
<path id="path17" fill-rule="evenodd" clip-rule="evenodd" d="M15.0726 14.7295H10.5166L10.47 14.945C14.024 15.8301 16.3777 17.9636 17.3447 20.5279L16.3543 15.626C16.1912 14.9448 15.6901 14.752 15.0726 14.7295Z" fill="white"/>
</g>
</g>
</svg>
