<svg width="56" height="40" viewBox="0 0 56 40" fill="none" xmlns="http://www.w3.org/2000/svg">
<g id="BNI">
<rect id="Background" width="56" height="40" rx="4" fill="white"/>
<g id="logo">
<path id="46" fill-rule="evenodd" clip-rule="evenodd" d="M9.08156 23.7524L10.982 26.1059H6.27679L9.08156 23.7524ZM8.48394 23.0254L4.80325 26.1131L4.80174 18.5194L8.48394 23.0254ZM17.34 15.379C17.34 15.379 16.532 14.9965 15.5933 15.0524C14.5201 15.1156 13.6223 15.5271 13.1062 16.0702C12.7814 16.4114 12.4224 16.8276 12.242 17.2796C11.9805 17.9335 11.9247 18.7975 11.9247 18.7975C11.9247 18.7975 11.5493 18.4789 11.0791 17.5507C10.5323 16.471 10.3828 15.8169 10.3087 15.0708C10.2427 14.416 10.3462 13.7686 10.3462 13.7686H17.34V15.379ZM17.34 17.5318V22.3199C17.34 22.3199 16.9052 22.4869 16.5505 22.4869C16.1959 22.4869 15.5919 22.4343 14.8905 22.0486C14.1941 21.6661 13.8087 21.2034 13.5099 20.784C13.2069 20.3575 12.9566 19.7662 12.8822 19.3401C12.8225 18.9992 12.758 18.149 13.1062 17.4579C13.2951 17.0829 13.8022 16.4401 14.7785 16.4036C15.5743 16.373 16.0155 16.5823 16.42 16.8042C17.1897 17.2275 17.34 17.5318 17.34 17.5318ZM9.72462 21.9836L10.9861 20.9321C10.5841 20.4186 10.4778 20.2251 10.0284 19.562C9.56827 18.8834 9.18283 18.1368 8.85323 17.2609C8.49646 16.3119 8.41029 15.7792 8.44968 15.0708C8.49903 14.1695 8.70397 13.7686 8.70397 13.7686H4.79993L4.80174 15.8727C4.80174 15.8727 7.79018 19.6178 9.72462 21.9836ZM13.3291 26.1024H17.34V23.1779C17.34 23.1779 16.3451 23.6342 15.6985 23.6711C15.3135 23.6936 14.9398 23.7084 14.3369 23.548C13.6667 23.3699 13.2859 23.1963 12.6648 22.684C12.1658 22.273 11.5954 21.6661 11.5954 21.6661L10.3265 22.7241C10.9152 23.4442 11.35 23.9684 11.4831 24.1095C12.0554 24.7142 12.2979 24.9365 12.6833 25.152C13.0686 25.368 14.3559 25.3563 14.3559 25.3563L13.3291 26.1024Z" fill="#E94E0F"/>
<path id="BNI_2" fill-rule="evenodd" clip-rule="evenodd" d="M47.6743 23.5008C47.6743 24.3482 47.7885 25.741 46.8396 26.0801V26.1366H50.4438V26.0801C49.4954 25.7224 49.6092 24.3482 49.6092 23.5008V16.4037C49.6092 15.5568 49.4954 14.1636 50.4438 13.806V13.7495H46.8396V13.806C47.8071 14.1636 47.6743 15.5379 47.6743 16.4037V23.5008ZM34.4584 16.4037L40.9652 24.5929C41.7996 25.6657 42.388 26.2872 43.7348 26.7388V16.1779C43.7348 15.1238 43.7348 14.3706 44.7215 13.806V13.7495H41.3825V13.806C42.388 14.3706 42.3687 15.1238 42.3687 16.1779V23.3127L35.4261 14.6153L35.1602 14.2388C35.0277 14.0883 34.9519 13.9942 34.876 13.7684V13.7495H32.106V13.806C33.0925 14.3706 33.0925 15.1238 33.0925 16.1779V23.6895C33.0925 24.7434 33.0925 25.4963 32.0874 26.0801V26.1366H35.4451V26.0801C34.4396 25.4963 34.4584 24.7434 34.4584 23.6895V16.4037ZM23.8522 18.7383V15.0486L25.1229 14.9165C26.2613 14.8036 27.4751 15.4814 27.4751 16.7805C27.4751 18.3242 25.7109 18.7383 24.4782 18.7383H23.8522ZM23.8522 24.6305V19.9805L25.1798 19.9053C26.8493 19.8111 28.6323 20.602 28.6323 22.428C28.6323 24.2164 27.0583 24.9317 25.5023 24.7811L23.8522 24.6305ZM21.917 23.4821C21.917 24.3482 22.031 25.7224 21.0822 26.0801V26.1366H24.2123C25.635 26.1366 27.134 26.1932 28.4616 25.5531C29.7327 24.9505 30.7382 23.7079 30.7382 22.2583C30.7382 20.4138 29.3531 19.2841 27.6458 18.9261C28.7273 18.4557 29.5427 17.7404 29.5427 16.479C29.5427 14.8036 28.0824 13.7495 25.5785 13.7495H21.0822V13.806C22.0501 14.1636 21.917 15.5379 21.917 16.3848V23.4821Z" fill="#005B6A"/>
</g>
</g>
</svg>
