<svg width="56" height="40" viewBox="0 0 56 40" fill="none" xmlns="http://www.w3.org/2000/svg">
<g id="MANDIRI">
<rect id="Background" width="56" height="40" rx="4" fill="#003D79"/>
<g id="logo">
<g id="Logo Mandiri">
<path id="Fill 1" fill-rule="evenodd" clip-rule="evenodd" d="M4.05053 21.1851C4.05053 20.4677 4.03789 19.8657 4 19.3289H5.31469L5.37634 20.2511H5.41322C5.7112 19.7638 6.25613 19.1875 7.27259 19.1875C8.06598 19.1875 8.68568 19.6495 8.94552 20.3406H8.97103C9.18211 19.995 9.42918 19.7391 9.71402 19.5592C10.049 19.3163 10.4334 19.1875 10.9292 19.1875C11.9329 19.1875 12.9486 19.8915 12.9486 21.8891V25.5631H11.4615V22.1199C11.4615 21.083 11.115 20.4677 10.3841 20.4677C9.86269 20.4677 9.47806 20.8525 9.31802 21.3008C9.28038 21.454 9.24324 21.6461 9.24324 21.8241V25.5631H7.75562V21.9529C7.75562 21.083 7.42152 20.4677 6.71491 20.4677C6.14472 20.4677 5.76097 20.9293 5.62429 21.3637C5.56189 21.5183 5.53688 21.697 5.53688 21.8759V25.5631H4.05053V21.1851Z" fill="white"/>
<path id="Fill 3" fill-rule="evenodd" clip-rule="evenodd" d="M18.7427 24.0659C18.7427 24.6289 18.7674 25.1784 18.8295 25.5636H17.4532L17.3545 24.8725H17.3168C16.9452 25.3594 16.3131 25.7045 15.5324 25.7045C14.3175 25.7045 13.6361 24.7963 13.6361 23.8484C13.6361 22.2732 14.9866 21.4802 17.2177 21.4928V21.39C17.2177 20.9802 17.0564 20.3021 15.9906 20.3021C15.3954 20.3021 14.7755 20.4943 14.3667 20.7627L14.0689 19.7394C14.5159 19.4572 15.2974 19.188 16.251 19.188C18.1852 19.188 18.7427 20.4562 18.7427 21.8126V24.0659ZM17.2548 22.517C16.1767 22.4912 15.1482 22.7344 15.1482 23.6819C15.1482 24.2958 15.5324 24.578 16.0159 24.578C16.6225 24.578 17.0694 24.1682 17.2053 23.7203C17.2422 23.605 17.2548 23.4765 17.2548 23.3745V22.517Z" fill="white"/>
<path id="Fill 5" fill-rule="evenodd" clip-rule="evenodd" d="M19.7966 21.1851C19.7966 20.4677 19.783 19.8657 19.7468 19.3289H21.0843L21.159 20.2634H21.1957C21.4563 19.7775 22.1131 19.1875 23.1168 19.1875C24.1707 19.1875 25.2613 19.8915 25.2613 21.8635V25.5631H23.737V22.0432C23.737 21.1464 23.4148 20.4677 22.5843 20.4677C21.9769 20.4677 21.5557 20.9159 21.3941 21.3898C21.3454 21.5309 21.3325 21.7234 21.3325 21.9014V25.5631H19.7966V21.1851Z" fill="white"/>
<path id="Fill 7" fill-rule="evenodd" clip-rule="evenodd" d="M31.8707 16.8242V23.8091C31.8707 24.4491 31.8951 25.1417 31.92 25.5636H30.5565L30.4955 24.578H30.4702C30.1106 25.2697 29.3782 25.7045 28.4992 25.7045C27.0621 25.7045 25.9215 24.4374 25.9215 22.5171C25.9088 20.4301 27.173 19.188 28.623 19.188C29.4531 19.188 30.0486 19.5469 30.3208 20.0082H30.3459V16.8242H31.8707ZM30.3459 21.9272C30.3459 21.8005 30.3332 21.6461 30.3093 21.5185C30.1728 20.904 29.6891 20.4044 28.995 20.4044C28.0159 20.4044 27.4705 21.301 27.4705 22.466C27.4705 23.6051 28.0159 24.4374 28.9826 24.4374C29.6021 24.4374 30.1478 24.0022 30.2963 23.3239C30.3332 23.1825 30.3459 23.029 30.3459 22.862V21.9272Z" fill="white"/>
<path id="Fill 9" fill-rule="evenodd" clip-rule="evenodd" d="M32.9479 25.5634H34.4863V19.3296H32.9479V25.5634Z" fill="white"/>
<path id="Fill 11" fill-rule="evenodd" clip-rule="evenodd" d="M35.5636 21.3389C35.5636 20.4943 35.5507 19.8918 35.5137 19.329H36.8401L36.8886 20.5192H36.94C37.237 19.6359 37.9436 19.329 38.5878 19.329C38.7362 19.329 38.8229 19.3028 38.9472 19.329V20.7121C38.8229 20.6865 38.6869 20.6609 38.5009 20.6609C37.7698 20.6609 37.2736 21.1469 37.1375 21.8506C37.1133 21.9915 37.0883 22.1586 37.0883 22.3387V25.5636H35.5636V21.3389Z" fill="white"/>
<path id="Fill 12" fill-rule="evenodd" clip-rule="evenodd" d="M39.6537 25.5634H41.1898V19.3296H39.6537V25.5634Z" fill="white"/>
</g>
<path id="Flag" fill-rule="evenodd" clip-rule="evenodd" d="M39.2903 11.7919C38.3676 12.3438 36.1912 13.6332 35.3787 14.1133C34.8836 14.3739 33.7367 14.4876 33.0881 13.5842C33.0765 13.5679 32.2254 12.4695 32.1906 12.4281C32.1663 12.3989 31.616 11.5559 30.39 11.5295C30.2089 11.5251 29.3082 11.5201 28.4295 12.036C27.2614 12.7253 24.5449 14.3295 24.5449 14.3295C24.5441 14.3295 24.5441 14.3309 24.5427 14.3309C23.4261 14.9909 22.556 15.5047 22.556 15.5047L23.584 16.8088C24.0649 17.4255 25.1493 17.9027 26.0897 17.345C26.0897 17.345 29.5645 15.2666 29.5773 15.2606C31.0801 14.4092 32.2397 14.4092 33.0093 14.726C33.7001 15.0275 34.3011 15.7788 34.3011 15.7788C34.3011 15.7788 35.0866 16.7842 35.2251 16.9601C35.672 17.5283 36.4117 17.3051 36.4117 17.3051C36.4117 17.3051 36.6858 17.273 37.099 17.0196C37.099 17.0196 40.4648 15.0038 40.467 15.0031C41.5357 14.3555 42.5159 14.2345 43.0169 14.2821C44.586 14.4294 45.0735 15.5617 45.7538 16.3516C46.1545 16.8162 46.516 17.08 47.0689 17.0667C47.4322 17.0588 47.8426 16.8312 47.9031 16.7901L51.9335 14.3876C51.9335 14.3876 51.52 13.7442 50.673 12.7432C49.915 11.8501 49.1099 12.2542 48.4679 12.5826C48.1983 12.7204 47.2211 13.3918 46.253 13.8602C45.5632 14.1938 44.5724 14.0935 44.0293 13.4004C43.9969 13.3583 43.1183 12.2597 43.026 12.1245C42.6714 11.6657 41.9796 11.2549 41.093 11.2549C40.5539 11.2549 39.9421 11.4068 39.2903 11.7919Z" fill="url(#paint0_linear_1453_275)"/>
</g>
</g>
<defs>
<linearGradient id="paint0_linear_1453_275" x1="22.556" y1="17.592" x2="51.9335" y2="17.592" gradientUnits="userSpaceOnUse">
<stop stop-color="#FFCA06"/>
<stop offset="0.330844" stop-color="#FBAA18"/>
<stop offset="0.694742" stop-color="#FFC907"/>
<stop offset="1" stop-color="#FAA619"/>
</linearGradient>
</defs>
</svg>
