<svg width="56" height="40" viewBox="0 0 56 40" fill="none" xmlns="http://www.w3.org/2000/svg">
<g id="SHOPEEPAY">
<rect id="Background" width="56" height="40" rx="4" fill="#F0592C"/>
<g id="logo">
<path id="shape" fill-rule="evenodd" clip-rule="evenodd" d="M24.6689 10.9704C24.8887 10.9703 25.1085 10.9702 25.3283 10.9702C25.3838 9.85583 25.6499 8.66467 26.4419 7.83274C27.2118 7.02204 28.6356 6.97877 29.4332 7.77151C30.2823 8.59609 30.604 9.82154 30.6636 10.9702C31.0517 10.9719 31.44 10.971 31.8282 10.9701C32.4005 10.9688 32.9727 10.9675 33.5447 10.9743C33.806 10.9604 34.0631 11.1507 34.0966 11.4144C34.1231 11.6604 34.1022 11.9072 34.0813 12.1538C34.0719 12.2647 34.0625 12.3756 34.0574 12.4863C33.8916 14.7107 33.7297 16.9358 33.5679 19.1602L33.5611 19.2545C33.5202 19.7549 33.3382 20.2791 32.9324 20.5991C32.6679 20.8105 32.3242 20.8881 31.9911 20.8791C30.5642 20.8774 29.1374 20.8777 27.7106 20.8781C26.4426 20.8784 25.1746 20.8786 23.9069 20.8775C23.4448 20.893 22.977 20.6677 22.737 20.266C22.4692 19.853 22.4414 19.3599 22.4143 18.88C22.409 18.785 22.4037 18.6905 22.3965 18.5972C22.3282 17.6727 22.2609 16.7481 22.1936 15.8236C22.0967 14.4933 21.9998 13.1631 21.9001 11.8332C21.8993 11.8166 21.8984 11.7998 21.8974 11.7828C21.8856 11.5681 21.8724 11.3293 22.0275 11.1613C22.1809 10.9751 22.4377 10.9718 22.6608 10.969C22.6704 10.9689 22.6801 10.9687 22.6896 10.9686C23.3497 10.9711 24.0094 10.9708 24.6689 10.9704ZM28.3204 7.93071C27.713 7.77478 27.0664 8.09481 26.7227 8.59773C26.2402 9.28679 26.0933 10.1457 26.032 10.9678C27.3416 10.9719 28.6511 10.9719 29.9598 10.9678C29.888 10.224 29.7484 9.46721 29.3793 8.80918C29.1499 8.40179 28.7874 8.0393 28.3204 7.93071ZM27.5922 12.6823C26.9227 12.7958 26.3365 13.3428 26.2329 14.022C26.1626 14.4768 26.37 14.9389 26.7129 15.2344C27.113 15.6037 27.6366 15.7691 28.1464 15.9302C28.2047 15.9486 28.2628 15.9669 28.3204 15.9855C28.8021 16.1578 29.3116 16.397 29.5843 16.8534C29.8039 17.2191 29.7524 17.7188 29.4651 18.0331C29.1548 18.3768 28.6805 18.5238 28.2306 18.5548C27.5538 18.5785 26.8982 18.3245 26.3463 17.9457C26.2226 17.8352 26.1197 17.9495 26.033 18.0459L26.033 18.0459C26.0127 18.0684 25.9934 18.0899 25.9749 18.1074C26.3602 18.5531 26.9342 18.7817 27.4959 18.9107C28.2012 19.0618 28.9981 18.9981 29.5932 18.5613C30.1582 18.1482 30.3158 17.331 30.0562 16.7015C29.8447 16.2231 29.3777 15.9218 28.9123 15.7251C28.7116 15.6365 28.4972 15.566 28.282 15.4952L28.282 15.4952L28.282 15.4952C27.749 15.3199 27.2102 15.1426 26.8566 14.685C26.5072 14.2425 26.7407 13.5877 27.1775 13.3003C27.7008 12.9345 28.3923 13.0129 28.9581 13.2293C29.0526 13.2596 29.142 13.3045 29.2312 13.3494C29.3609 13.4146 29.4903 13.4797 29.6349 13.4995C29.8039 13.435 29.8243 13.1934 29.6643 13.1076C29.0699 12.6986 28.2984 12.5582 27.5922 12.6823Z" fill="white"/>
<path id="shape_2" fill-rule="evenodd" clip-rule="evenodd" d="M6.49288 26.4303C6.90177 26.8207 7.42411 27.0078 7.94595 27.1947C8.47156 27.3829 8.99666 27.571 9.40478 27.9664C9.77582 28.2796 9.81737 28.851 9.60662 29.2665C9.33354 29.7311 8.75917 29.9077 8.25011 29.9285C7.4086 29.9314 6.6784 29.4595 6.00904 29.0038C5.99059 29.0192 5.97086 29.0352 5.9504 29.0518C5.73382 29.2275 5.43546 29.4695 5.71073 29.7326C6.80603 30.7373 8.68942 31.1544 9.91681 30.1555C10.7939 29.4506 10.7568 28.0243 9.90939 27.3119C9.50126 26.886 8.96323 26.6995 8.42476 26.5129C7.97633 26.3574 7.5276 26.2019 7.15332 25.9079C6.53443 25.4805 6.82087 24.4015 7.52585 24.2427C8.24269 24.0023 8.98031 24.2664 9.62443 24.584C10.0563 24.826 10.3339 24.0616 9.94501 23.8642C9.10647 23.3077 7.9518 23.1355 7.02272 23.5615C5.96304 24.0156 5.60387 25.6437 6.49288 26.4303ZM11.1709 29.8424L11.1717 29.9178C11.1738 30.1368 11.176 30.3584 11.2199 30.5741C11.3832 30.7818 11.7883 30.8071 11.9234 30.5577C12.0359 30.1582 12.0128 29.7241 11.9898 29.2911C11.9546 28.6273 11.9195 27.966 12.3731 27.4351C12.8777 26.7657 14.1748 26.8192 14.4509 27.6696C14.5422 28.1712 14.5285 28.681 14.5148 29.1911C14.5024 29.6514 14.49 30.1118 14.5548 30.5666C14.7744 30.8754 15.3933 30.7344 15.3236 30.3173C15.331 29.5159 15.3369 28.7144 15.331 27.913C15.3384 26.9468 14.4034 26.1246 13.455 26.1602C12.9163 26.1083 12.4324 26.3695 11.9842 26.6307C11.9838 26.3269 11.9872 26.0229 11.9906 25.7187V25.7187V25.7186V25.7185V25.7185V25.7184V25.7183V25.7183C11.9979 25.0625 12.0053 24.4063 11.9738 23.7514C11.9842 23.5036 11.7883 23.2765 11.5256 23.3418C11.211 23.3136 11.1739 23.6802 11.1754 23.9117C11.1728 24.7684 11.1738 25.625 11.1749 26.4816V26.4818C11.1763 27.602 11.1776 28.7222 11.1709 29.8424ZM36.9252 30.8917L36.9262 30.8916L36.9264 30.8916L36.9266 30.8916L36.9268 30.8916L36.927 30.8916L36.9272 30.8916L36.9274 30.8916L36.9276 30.8916C37.0933 30.8898 37.2593 30.8879 37.4255 30.8857C37.5033 30.3875 37.591 29.8917 37.6788 29.396L37.6788 29.3959C37.7301 29.106 37.7814 28.8162 37.8307 28.5259C37.9594 28.5238 38.0882 28.5234 38.217 28.5229C38.6293 28.5215 39.0421 28.5201 39.4514 28.4636C40.5853 28.29 41.5782 27.1828 41.3912 26.0059C41.2888 25.2757 40.5912 24.7651 39.8833 24.7325C39.456 24.7163 39.0287 24.7195 38.6014 24.7226C38.2421 24.7253 37.8828 24.7279 37.5235 24.7191C37.3122 25.8869 37.1051 27.0551 36.8981 28.2236C36.7401 29.1149 36.5822 30.0062 36.4223 30.8976C36.5898 30.8954 36.7574 30.8935 36.9252 30.8917ZM38.1992 26.4845L38.1995 26.4828C38.2483 26.2112 38.2971 25.9398 38.3472 25.669C38.5188 25.6755 38.6926 25.6702 38.8668 25.6649C39.244 25.6535 39.6228 25.6419 39.9842 25.7506C40.5586 26.0059 40.4769 26.8459 40.0673 27.2199C39.6622 27.6206 39.1044 27.5989 38.5632 27.5778C38.3708 27.5703 38.1805 27.5629 37.9999 27.5746C38.0686 27.2116 38.1339 26.8481 38.1992 26.4849L38.1992 26.4845ZM16.6163 29.9522C16.0256 29.2576 15.8697 28.1935 16.3372 27.3921C16.6519 26.8281 17.2218 26.4407 17.8348 26.2626C18.985 25.9272 20.2866 26.7034 20.6264 27.8328C20.7897 28.4725 20.7199 29.1953 20.3341 29.7444C19.5534 30.9763 17.5305 31.0846 16.6163 29.9522ZM19.8191 28.9489C20.248 27.9189 19.1349 26.7702 18.0856 27.0655C17.0467 27.2006 16.4812 28.5779 17.204 29.3675C17.8719 30.2965 19.4703 30.0294 19.8191 28.9489ZM21.9236 26.2389C21.6475 26.1231 21.3626 26.4526 21.4145 26.7227C21.4038 27.6693 21.4057 28.6159 21.4077 29.5627V29.5628V29.5629V29.563V29.5631V29.5632V29.5636V29.5637C21.4095 30.4514 21.4113 31.3392 21.4026 32.2274C21.4066 32.2943 21.4064 32.3632 21.4061 32.4328C21.4053 32.6475 21.4044 32.868 21.5288 33.0496C21.7603 33.1431 22.2145 33.1788 22.2174 32.8285C22.258 32.2321 22.248 31.6336 22.2381 31.0355V31.0354V31.0354V31.0354V31.0353V31.0353V31.0351V31.0349V31.0348V31.0346V31.0344C22.2335 30.7562 22.2288 30.478 22.2293 30.2001C23.3142 31.052 25.1472 30.8917 25.8432 29.6242C26.5541 28.5052 25.9931 26.8904 24.7761 26.4021C23.9643 25.9791 22.9788 26.2166 22.2917 26.7702C22.2633 26.7181 22.2432 26.6539 22.2228 26.5883C22.1715 26.4242 22.1177 26.2516 21.9236 26.2389ZM23.1851 27.162C23.8901 26.8652 24.8088 27.0982 25.162 27.8106C25.634 28.5289 25.1709 29.5366 24.4051 29.8201C23.6378 30.1867 22.6493 29.7236 22.3941 28.9252C22.1061 28.244 22.5425 27.4484 23.1851 27.162ZM30.7335 30.3574C29.8549 30.9035 28.6349 30.9778 27.7489 30.4034C26.5452 29.504 26.5912 27.4113 27.8171 26.5535C28.7863 25.8619 30.3818 26.1914 30.8611 27.3208C31.0274 27.729 31.1357 28.2068 30.9754 28.6343C30.8381 28.7305 30.6701 28.7349 30.5075 28.7391C30.4645 28.7402 30.4219 28.7413 30.3803 28.7441C30.0662 28.7457 29.752 28.7442 29.4377 28.7427C28.846 28.7399 28.2541 28.7371 27.6628 28.7545C27.6879 28.8167 27.7118 28.8813 27.7361 28.9468C27.8622 29.2877 27.9966 29.6511 28.3514 29.8068C29.0045 30.1125 29.7554 29.9299 30.3936 29.6732C30.7721 29.461 31.106 30.1689 30.7335 30.3574ZM29.659 27.162C29.2924 27.0106 28.8709 27.0077 28.4924 27.113C28.1648 27.2043 27.9962 27.5064 27.8394 27.7874C27.8101 27.8399 27.7813 27.8917 27.7518 27.9412C28.58 27.9545 29.4096 27.9531 30.2393 27.9412C30.2103 27.8867 30.1828 27.8297 30.1551 27.7721C30.0378 27.5289 29.9158 27.276 29.659 27.162ZM32.5946 30.3188C33.4599 30.9911 34.7407 30.9154 35.6564 30.3826C36.0631 30.1733 35.7024 29.3986 35.2913 29.691C34.6888 29.9403 33.9853 30.0858 33.3604 29.835C32.9637 29.6802 32.8098 29.278 32.6679 28.9072C32.6479 28.8549 32.6282 28.8033 32.608 28.753C33.2161 28.7368 33.8243 28.74 34.4324 28.7431C34.7148 28.7446 34.9971 28.7461 35.2795 28.7456C35.3264 28.7425 35.3748 28.7417 35.4238 28.7408C35.6103 28.7376 35.8045 28.7342 35.9503 28.6061C36.1165 27.9857 35.8954 27.3045 35.4961 26.8192C34.7719 26.0771 33.4836 25.9762 32.6674 26.6292C31.5854 27.5093 31.5364 29.3986 32.5946 30.3188ZM32.7089 27.9442C32.9152 27.4366 33.3397 26.9676 33.9422 27.0418C34.5418 26.9631 35.0316 27.3831 35.1845 27.9427C34.3593 27.9531 33.5341 27.9516 32.7089 27.9442ZM44.0077 27.3579C43.3918 26.9527 42.6319 27.2911 42.1273 27.7156L41.5351 27.1947C42.0294 26.7598 42.623 26.4036 43.2968 26.3621C43.8742 26.3279 44.5539 26.3858 44.9591 26.8533C45.2618 27.1679 45.3108 27.6444 45.2411 28.0584C45.1291 28.7667 44.9998 29.4717 44.8704 30.1771C44.8265 30.4162 44.7826 30.6553 44.7394 30.8946L44.7391 30.8946C44.4186 30.8932 44.0982 30.8917 43.7792 30.8917L43.892 30.3752C43.2731 30.9971 42.2416 31.2924 41.4639 30.7908C40.7307 30.298 40.8895 29.1686 41.498 28.6402C42.2475 27.9367 43.3799 27.9902 44.3016 28.2618C44.2911 28.1893 44.2875 28.1107 44.2838 28.0306C44.2716 27.7698 44.2587 27.493 44.0077 27.3579ZM44.1621 29.0484C43.5848 28.8168 42.8709 28.6595 42.3158 29.0291C41.9388 29.268 41.7964 29.9225 42.2668 30.1451C43.0846 30.5013 43.9291 29.8201 44.1621 29.0484ZM46.1142 27.8263C45.9983 27.3854 45.8825 26.9446 45.765 26.5045H46.8499C46.9636 26.9586 47.0719 27.414 47.1802 27.8694C47.3067 28.4009 47.4331 28.9325 47.5682 29.4624C47.9733 28.8457 48.3411 28.2069 48.7089 27.5681C48.9138 27.2123 49.1186 26.8565 49.3299 26.5045C49.6846 26.5045 50.0393 26.506 50.3955 26.5075L50.4 26.5075C49.9286 27.2691 49.4603 28.0328 48.9921 28.7964C48.1792 30.122 47.3663 31.4477 46.5367 32.7632C46.3121 32.7602 46.0874 32.7586 45.8628 32.7569C45.7505 32.7561 45.6383 32.7553 45.526 32.7543C45.6786 32.512 45.8329 32.2707 45.9873 32.0294C46.2848 31.5642 46.5824 31.099 46.8677 30.626C46.6055 29.6963 46.3598 28.761 46.1142 27.8263Z" fill="white"/>
</g>
</g>
</svg>
