<svg width="40" height="40" viewBox="0 0 40 40" fill="none" xmlns="http://www.w3.org/2000/svg">
<g id="Social Media">
<rect width="40" height="40" rx="20" fill="#333333"/>
<path id="Vector" d="M10.0001 29.2595L11.4351 23.924C10.2778 21.8455 9.91015 19.4202 10.3995 17.0929C10.8889 14.7657 12.2025 12.6927 14.0993 11.2543C15.9961 9.81594 18.3488 9.1087 20.7257 9.26236C23.1027 9.41602 25.3444 10.4203 27.0395 12.0908C28.7347 13.7614 29.7695 15.9862 29.9542 18.357C30.1388 20.7279 29.4609 23.0856 28.0448 24.9977C26.6288 26.9098 24.5695 28.248 22.2449 28.7666C19.9203 29.2853 17.4864 28.9496 15.3897 27.8213L10.0001 29.2595ZM15.6495 25.8247L15.9829 26.0221C17.5015 26.9207 19.2753 27.2926 21.0278 27.0798C22.7803 26.8669 24.4131 26.0813 25.6716 24.8453C26.9302 23.6093 27.7438 21.9924 27.9858 20.2466C28.2278 18.5007 27.8845 16.724 27.0094 15.1933C26.1344 13.6625 24.7767 12.4638 23.1479 11.7838C21.5192 11.1039 19.7109 10.9809 18.0048 11.4341C16.2988 11.8873 14.7908 12.8912 13.7159 14.2893C12.641 15.6874 12.0595 17.4013 12.0622 19.1638C12.0607 20.6251 12.4656 22.0583 13.2316 23.3036L13.4406 23.6476L12.6384 26.6256L15.6495 25.8247Z" fill="white"/>
<path id="Vector_2" fill-rule="evenodd" clip-rule="evenodd" d="M23.7393 20.5339C23.5439 20.3765 23.3151 20.2658 23.0703 20.2101C22.8256 20.1544 22.5713 20.1552 22.3269 20.2124C21.9597 20.3647 21.7224 20.94 21.4851 21.2276C21.4351 21.2965 21.3616 21.3449 21.2784 21.3636C21.1952 21.3823 21.108 21.37 21.0332 21.3291C19.6888 20.8034 18.5619 19.8394 17.8356 18.5937C17.7737 18.5159 17.7443 18.4172 17.7538 18.3184C17.7633 18.2195 17.8109 18.1281 17.8865 18.0635C18.1511 17.802 18.3454 17.478 18.4514 17.1216C18.4749 16.7285 18.3847 16.337 18.1915 15.9936C18.0422 15.5123 17.7579 15.0837 17.3724 14.7584C17.1735 14.6692 16.953 14.6392 16.7375 14.6722C16.522 14.7053 16.3206 14.7998 16.1577 14.9446C15.875 15.1881 15.6505 15.4919 15.5009 15.8335C15.3513 16.1752 15.2804 16.546 15.2934 16.9186C15.2942 17.1278 15.3208 17.3362 15.3725 17.539C15.5037 18.0262 15.7054 18.4918 15.9713 18.9208C16.1632 19.2495 16.3725 19.5676 16.5984 19.874C17.3326 20.8802 18.2554 21.7345 19.3158 22.3894C19.8479 22.7223 20.4165 22.9929 21.0106 23.196C21.6277 23.4752 22.309 23.5824 22.9822 23.5062C23.3658 23.4482 23.7292 23.297 24.0405 23.0659C24.3518 22.8348 24.6015 22.5308 24.7675 22.1808C24.865 21.9693 24.8946 21.7329 24.8522 21.504C24.7505 21.0358 24.1234 20.7595 23.7393 20.5339Z" fill="white"/>
</g>
</svg>
